<mxfile host="app.diagrams.net" agent="Mozilla/5.0 (Windows NT 10.0; Win64; x64) AppleWebKit/537.36 (KHTML, like Gecko) Chrome/128.0.0.0 Safari/537.36" version="24.7.8">
  <diagram name="Page-1" id="FxBBNrkQLF-FEdFj6mu-">
    <mxGraphModel dx="1337" dy="677" grid="1" gridSize="10" guides="1" tooltips="1" connect="1" arrows="1" fold="1" page="1" pageScale="1" pageWidth="850" pageHeight="1100" math="0" shadow="0">
      <root>
        <mxCell id="0" />
        <mxCell id="1" parent="0" />
        <mxCell id="xZK3O00M8n8B7UsS9KFt-140" value="" style="rounded=0;whiteSpace=wrap;html=1;" vertex="1" parent="1">
          <mxGeometry x="3150" y="75" width="2210" height="800" as="geometry" />
        </mxCell>
        <mxCell id="xZK3O00M8n8B7UsS9KFt-2" value="Oracle Node" style="shape=cube;whiteSpace=wrap;html=1;boundedLbl=1;backgroundOutline=1;darkOpacity=0.05;darkOpacity2=0.1;" vertex="1" parent="1">
          <mxGeometry x="486" y="546" width="120" height="80" as="geometry" />
        </mxCell>
        <mxCell id="xZK3O00M8n8B7UsS9KFt-5" value="" style="edgeStyle=orthogonalEdgeStyle;rounded=0;orthogonalLoop=1;jettySize=auto;html=1;" edge="1" parent="1" source="xZK3O00M8n8B7UsS9KFt-4" target="xZK3O00M8n8B7UsS9KFt-2">
          <mxGeometry relative="1" as="geometry" />
        </mxCell>
        <mxCell id="xZK3O00M8n8B7UsS9KFt-13" value="" style="edgeStyle=orthogonalEdgeStyle;rounded=0;orthogonalLoop=1;jettySize=auto;html=1;startArrow=classic;startFill=1;dashed=1;" edge="1" parent="1" source="xZK3O00M8n8B7UsS9KFt-4" target="xZK3O00M8n8B7UsS9KFt-11">
          <mxGeometry relative="1" as="geometry" />
        </mxCell>
        <mxCell id="xZK3O00M8n8B7UsS9KFt-146" style="edgeStyle=orthogonalEdgeStyle;rounded=0;orthogonalLoop=1;jettySize=auto;html=1;" edge="1" parent="1" source="xZK3O00M8n8B7UsS9KFt-4" target="xZK3O00M8n8B7UsS9KFt-143">
          <mxGeometry relative="1" as="geometry">
            <Array as="points">
              <mxPoint x="453" y="586" />
            </Array>
          </mxGeometry>
        </mxCell>
        <mxCell id="xZK3O00M8n8B7UsS9KFt-147" style="edgeStyle=orthogonalEdgeStyle;rounded=0;orthogonalLoop=1;jettySize=auto;html=1;entryX=0.5;entryY=1;entryDx=0;entryDy=0;" edge="1" parent="1" source="xZK3O00M8n8B7UsS9KFt-4" target="xZK3O00M8n8B7UsS9KFt-142">
          <mxGeometry relative="1" as="geometry">
            <Array as="points">
              <mxPoint x="453" y="586" />
            </Array>
          </mxGeometry>
        </mxCell>
        <mxCell id="xZK3O00M8n8B7UsS9KFt-4" value="Hotspot" style="shape=cylinder3;whiteSpace=wrap;html=1;boundedLbl=1;backgroundOutline=1;size=15;" vertex="1" parent="1">
          <mxGeometry x="336" y="546" width="60" height="80" as="geometry" />
        </mxCell>
        <mxCell id="xZK3O00M8n8B7UsS9KFt-41" value="" style="edgeStyle=orthogonalEdgeStyle;rounded=0;orthogonalLoop=1;jettySize=auto;html=1;" edge="1" parent="1" source="xZK3O00M8n8B7UsS9KFt-6" target="xZK3O00M8n8B7UsS9KFt-40">
          <mxGeometry relative="1" as="geometry" />
        </mxCell>
        <mxCell id="xZK3O00M8n8B7UsS9KFt-6" value="Oracle Node" style="shape=cube;whiteSpace=wrap;html=1;boundedLbl=1;backgroundOutline=1;darkOpacity=0.05;darkOpacity2=0.1;" vertex="1" parent="1">
          <mxGeometry x="486" y="353" width="120" height="80" as="geometry" />
        </mxCell>
        <mxCell id="xZK3O00M8n8B7UsS9KFt-7" value="" style="edgeStyle=orthogonalEdgeStyle;rounded=0;orthogonalLoop=1;jettySize=auto;html=1;" edge="1" parent="1" source="xZK3O00M8n8B7UsS9KFt-8" target="xZK3O00M8n8B7UsS9KFt-6">
          <mxGeometry relative="1" as="geometry" />
        </mxCell>
        <mxCell id="xZK3O00M8n8B7UsS9KFt-148" style="edgeStyle=orthogonalEdgeStyle;rounded=0;orthogonalLoop=1;jettySize=auto;html=1;" edge="1" parent="1" source="xZK3O00M8n8B7UsS9KFt-8" target="xZK3O00M8n8B7UsS9KFt-142">
          <mxGeometry relative="1" as="geometry">
            <Array as="points">
              <mxPoint x="453" y="393" />
            </Array>
          </mxGeometry>
        </mxCell>
        <mxCell id="xZK3O00M8n8B7UsS9KFt-8" value="Hotspot" style="shape=cylinder3;whiteSpace=wrap;html=1;boundedLbl=1;backgroundOutline=1;size=15;" vertex="1" parent="1">
          <mxGeometry x="336" y="353" width="60" height="80" as="geometry" />
        </mxCell>
        <mxCell id="xZK3O00M8n8B7UsS9KFt-264" style="edgeStyle=orthogonalEdgeStyle;rounded=0;orthogonalLoop=1;jettySize=auto;html=1;startArrow=classicThin;startFill=1;" edge="1" parent="1" source="xZK3O00M8n8B7UsS9KFt-9" target="xZK3O00M8n8B7UsS9KFt-263">
          <mxGeometry relative="1" as="geometry" />
        </mxCell>
        <mxCell id="xZK3O00M8n8B7UsS9KFt-9" value="Oracle Node" style="shape=cube;whiteSpace=wrap;html=1;boundedLbl=1;backgroundOutline=1;darkOpacity=0.05;darkOpacity2=0.1;" vertex="1" parent="1">
          <mxGeometry x="486" y="736" width="120" height="80" as="geometry" />
        </mxCell>
        <mxCell id="xZK3O00M8n8B7UsS9KFt-10" value="" style="edgeStyle=orthogonalEdgeStyle;rounded=0;orthogonalLoop=1;jettySize=auto;html=1;" edge="1" parent="1" source="xZK3O00M8n8B7UsS9KFt-11" target="xZK3O00M8n8B7UsS9KFt-9">
          <mxGeometry relative="1" as="geometry" />
        </mxCell>
        <mxCell id="xZK3O00M8n8B7UsS9KFt-145" style="edgeStyle=orthogonalEdgeStyle;rounded=0;orthogonalLoop=1;jettySize=auto;html=1;entryX=0.5;entryY=1;entryDx=0;entryDy=0;" edge="1" parent="1" source="xZK3O00M8n8B7UsS9KFt-11" target="xZK3O00M8n8B7UsS9KFt-143">
          <mxGeometry relative="1" as="geometry">
            <Array as="points">
              <mxPoint x="453" y="776" />
            </Array>
          </mxGeometry>
        </mxCell>
        <mxCell id="xZK3O00M8n8B7UsS9KFt-11" value="Hotspot" style="shape=cylinder3;whiteSpace=wrap;html=1;boundedLbl=1;backgroundOutline=1;size=15;" vertex="1" parent="1">
          <mxGeometry x="336" y="736" width="60" height="80" as="geometry" />
        </mxCell>
        <mxCell id="xZK3O00M8n8B7UsS9KFt-12" style="edgeStyle=orthogonalEdgeStyle;rounded=0;orthogonalLoop=1;jettySize=auto;html=1;entryX=0.5;entryY=1;entryDx=0;entryDy=0;entryPerimeter=0;startArrow=classic;startFill=1;dashed=1;" edge="1" parent="1" source="xZK3O00M8n8B7UsS9KFt-4" target="xZK3O00M8n8B7UsS9KFt-8">
          <mxGeometry relative="1" as="geometry" />
        </mxCell>
        <mxCell id="xZK3O00M8n8B7UsS9KFt-14" style="edgeStyle=orthogonalEdgeStyle;rounded=0;orthogonalLoop=1;jettySize=auto;html=1;startArrow=classic;startFill=1;dashed=1;exitX=-0.104;exitY=0.656;exitDx=0;exitDy=0;exitPerimeter=0;" edge="1" parent="1" source="xZK3O00M8n8B7UsS9KFt-11">
          <mxGeometry relative="1" as="geometry">
            <mxPoint x="310.0000000000001" y="788" as="sourcePoint" />
            <mxPoint x="330" y="398" as="targetPoint" />
            <Array as="points">
              <mxPoint x="250" y="789" />
              <mxPoint x="250" y="398" />
            </Array>
          </mxGeometry>
        </mxCell>
        <mxCell id="xZK3O00M8n8B7UsS9KFt-15" value="Beacon/Witness&lt;br&gt;Data" style="text;html=1;align=center;verticalAlign=middle;whiteSpace=wrap;rounded=0;" vertex="1" parent="1">
          <mxGeometry x="280" y="673" width="60" height="23" as="geometry" />
        </mxCell>
        <mxCell id="xZK3O00M8n8B7UsS9KFt-26" value="Data + ZK proof" style="text;html=1;align=center;verticalAlign=middle;whiteSpace=wrap;rounded=0;" vertex="1" parent="1">
          <mxGeometry x="1002" y="353" width="60" height="30" as="geometry" />
        </mxCell>
        <mxCell id="xZK3O00M8n8B7UsS9KFt-27" value="Data + ZK proof" style="text;html=1;align=center;verticalAlign=middle;whiteSpace=wrap;rounded=0;" vertex="1" parent="1">
          <mxGeometry x="616" y="553" width="60" height="30" as="geometry" />
        </mxCell>
        <mxCell id="xZK3O00M8n8B7UsS9KFt-29" value="Data + ZK proof" style="text;html=1;align=center;verticalAlign=middle;whiteSpace=wrap;rounded=0;" vertex="1" parent="1">
          <mxGeometry x="616" y="743" width="60" height="30" as="geometry" />
        </mxCell>
        <mxCell id="xZK3O00M8n8B7UsS9KFt-70" style="edgeStyle=orthogonalEdgeStyle;rounded=0;orthogonalLoop=1;jettySize=auto;html=1;entryX=0;entryY=0.5;entryDx=0;entryDy=0;" edge="1" parent="1" source="xZK3O00M8n8B7UsS9KFt-40" target="xZK3O00M8n8B7UsS9KFt-61">
          <mxGeometry relative="1" as="geometry" />
        </mxCell>
        <mxCell id="xZK3O00M8n8B7UsS9KFt-40" value="Circom circuit" style="rounded=0;whiteSpace=wrap;html=1;" vertex="1" parent="1">
          <mxGeometry x="676" y="368" width="90" height="50" as="geometry" />
        </mxCell>
        <mxCell id="xZK3O00M8n8B7UsS9KFt-45" style="edgeStyle=orthogonalEdgeStyle;rounded=0;orthogonalLoop=1;jettySize=auto;html=1;entryX=0.5;entryY=0;entryDx=0;entryDy=0;" edge="1" parent="1" source="xZK3O00M8n8B7UsS9KFt-42" target="xZK3O00M8n8B7UsS9KFt-40">
          <mxGeometry relative="1" as="geometry">
            <Array as="points">
              <mxPoint x="721" y="303" />
            </Array>
          </mxGeometry>
        </mxCell>
        <mxCell id="xZK3O00M8n8B7UsS9KFt-42" value="Signal inputs" style="shape=mxgraph.uml25.action;html=1;align=center;verticalAlign=middle;absoluteArcSize=1;arcSize=10;dashed=0;spacingLeft=10;flipH=1;whiteSpace=wrap;" vertex="1" parent="1">
          <mxGeometry x="541" y="283" width="110" height="40" as="geometry" />
        </mxCell>
        <mxCell id="xZK3O00M8n8B7UsS9KFt-43" value="Oracle data" style="text;verticalAlign=middle;align=right;html=1;" vertex="1" parent="xZK3O00M8n8B7UsS9KFt-42">
          <mxGeometry x="-60" width="60" height="40" as="geometry" />
        </mxCell>
        <mxCell id="xZK3O00M8n8B7UsS9KFt-44" style="edgeStyle=orthogonalEdgeStyle;rounded=0;orthogonalLoop=1;jettySize=auto;html=1;entryX=0.952;entryY=0.665;entryDx=0;entryDy=0;entryPerimeter=0;" edge="1" parent="1" source="xZK3O00M8n8B7UsS9KFt-6" target="xZK3O00M8n8B7UsS9KFt-42">
          <mxGeometry relative="1" as="geometry" />
        </mxCell>
        <mxCell id="xZK3O00M8n8B7UsS9KFt-46" value="" style="edgeStyle=orthogonalEdgeStyle;rounded=0;orthogonalLoop=1;jettySize=auto;html=1;" edge="1" parent="1" target="xZK3O00M8n8B7UsS9KFt-47">
          <mxGeometry relative="1" as="geometry">
            <mxPoint x="606" y="593" as="sourcePoint" />
          </mxGeometry>
        </mxCell>
        <mxCell id="xZK3O00M8n8B7UsS9KFt-72" style="edgeStyle=orthogonalEdgeStyle;rounded=0;orthogonalLoop=1;jettySize=auto;html=1;entryX=0;entryY=0.5;entryDx=0;entryDy=0;" edge="1" parent="1" source="xZK3O00M8n8B7UsS9KFt-47" target="xZK3O00M8n8B7UsS9KFt-64">
          <mxGeometry relative="1" as="geometry" />
        </mxCell>
        <mxCell id="xZK3O00M8n8B7UsS9KFt-47" value="Circom circuit" style="rounded=0;whiteSpace=wrap;html=1;" vertex="1" parent="1">
          <mxGeometry x="676" y="568" width="90" height="50" as="geometry" />
        </mxCell>
        <mxCell id="xZK3O00M8n8B7UsS9KFt-48" style="edgeStyle=orthogonalEdgeStyle;rounded=0;orthogonalLoop=1;jettySize=auto;html=1;entryX=0.5;entryY=0;entryDx=0;entryDy=0;" edge="1" parent="1" source="xZK3O00M8n8B7UsS9KFt-49" target="xZK3O00M8n8B7UsS9KFt-47">
          <mxGeometry relative="1" as="geometry">
            <Array as="points">
              <mxPoint x="721" y="503" />
            </Array>
          </mxGeometry>
        </mxCell>
        <mxCell id="xZK3O00M8n8B7UsS9KFt-49" value="Signal inputs" style="shape=mxgraph.uml25.action;html=1;align=center;verticalAlign=middle;absoluteArcSize=1;arcSize=10;dashed=0;spacingLeft=10;flipH=1;whiteSpace=wrap;" vertex="1" parent="1">
          <mxGeometry x="541" y="483" width="110" height="40" as="geometry" />
        </mxCell>
        <mxCell id="xZK3O00M8n8B7UsS9KFt-50" value="Oracle data" style="text;verticalAlign=middle;align=right;html=1;" vertex="1" parent="xZK3O00M8n8B7UsS9KFt-49">
          <mxGeometry x="-60" width="60" height="40" as="geometry" />
        </mxCell>
        <mxCell id="xZK3O00M8n8B7UsS9KFt-51" value="" style="edgeStyle=orthogonalEdgeStyle;rounded=0;orthogonalLoop=1;jettySize=auto;html=1;" edge="1" parent="1" target="xZK3O00M8n8B7UsS9KFt-52">
          <mxGeometry relative="1" as="geometry">
            <mxPoint x="604" y="783" as="sourcePoint" />
          </mxGeometry>
        </mxCell>
        <mxCell id="xZK3O00M8n8B7UsS9KFt-73" style="edgeStyle=orthogonalEdgeStyle;rounded=0;orthogonalLoop=1;jettySize=auto;html=1;entryX=0;entryY=0.5;entryDx=0;entryDy=0;" edge="1" parent="1" source="xZK3O00M8n8B7UsS9KFt-52" target="xZK3O00M8n8B7UsS9KFt-67">
          <mxGeometry relative="1" as="geometry" />
        </mxCell>
        <mxCell id="xZK3O00M8n8B7UsS9KFt-52" value="Circom circuit" style="rounded=0;whiteSpace=wrap;html=1;" vertex="1" parent="1">
          <mxGeometry x="674" y="758" width="90" height="50" as="geometry" />
        </mxCell>
        <mxCell id="xZK3O00M8n8B7UsS9KFt-53" style="edgeStyle=orthogonalEdgeStyle;rounded=0;orthogonalLoop=1;jettySize=auto;html=1;entryX=0.5;entryY=0;entryDx=0;entryDy=0;" edge="1" parent="1" source="xZK3O00M8n8B7UsS9KFt-54" target="xZK3O00M8n8B7UsS9KFt-52">
          <mxGeometry relative="1" as="geometry">
            <Array as="points">
              <mxPoint x="719" y="693" />
            </Array>
          </mxGeometry>
        </mxCell>
        <mxCell id="xZK3O00M8n8B7UsS9KFt-54" value="Signal inputs" style="shape=mxgraph.uml25.action;html=1;align=center;verticalAlign=middle;absoluteArcSize=1;arcSize=10;dashed=0;spacingLeft=10;flipH=1;whiteSpace=wrap;" vertex="1" parent="1">
          <mxGeometry x="539" y="673" width="110" height="40" as="geometry" />
        </mxCell>
        <mxCell id="xZK3O00M8n8B7UsS9KFt-55" value="Oracle data" style="text;verticalAlign=middle;align=right;html=1;" vertex="1" parent="xZK3O00M8n8B7UsS9KFt-54">
          <mxGeometry x="-60" width="60" height="40" as="geometry" />
        </mxCell>
        <mxCell id="xZK3O00M8n8B7UsS9KFt-61" value="" style="strokeColor=#dddddd;shadow=1;strokeWidth=1;rounded=1;absoluteArcSize=1;arcSize=2;" vertex="1" parent="1">
          <mxGeometry x="820" y="363" width="170" height="60" as="geometry" />
        </mxCell>
        <mxCell id="xZK3O00M8n8B7UsS9KFt-62" value="verification key" style="editableCssRules=.*;html=1;fontColor=#999999;shape=image;verticalLabelPosition=middle;verticalAlign=middle;labelPosition=right;align=left;spacingLeft=20;part=1;points=[];imageAspect=0;image=data:image/svg+xml,PHN2ZyB4bWxucz0iaHR0cDovL3d3dy53My5vcmcvMjAwMC9zdmciIHhtbG5zOnY9Imh0dHBzOi8vdmVjdGEuaW8vbmFubyIgd2lkdGg9IjMxMC43NzU2MDY1NDM4NjAyNSIgaGVpZ2h0PSIzNzcuOTUzMDI4ODM1NTI1NDYiIHZpZXdCb3g9Ii0wLjE0MDAwMDAwMDU5NjA0NjQ1IC0wLjQ2NzAwMDAwNzYyOTM5NDUzIDgyLjIyNTk5NzkyNDgwNDY5IDEwMC4wMDAwMDc2MjkzOTQ1MyI+JiN4YTs8c3R5bGUgdHlwZT0idGV4dC9jc3MiPiYjeGE7CS5zdDB7ZmlsbDojNDI4NWY0O30mI3hhOwkuc3Qxe2ZpbGw6IzY2OWRmNjt9JiN4YTsJLnN0MntmaWxsOiNmZmY7fSYjeGE7PC9zdHlsZT4mI3hhOwk8cGF0aCBjbGFzcz0ic3QwIiBkPSJNNDAuOTczLS40NjdsNDEuMTEzIDE3LjQ5M3YyOS42NTRjMCAyNy40MTgtMjQuNjA4IDUwLjgzNi00MS4xMTMgNTIuODUzeiIvPiYjeGE7CTxwYXRoIGNsYXNzPSJzdDEiIGQ9Ik00MC45NzMtLjQ2N0wtLjE0IDE3LjAyNXYyOS42NTRjMCAyNy40MTggMjQuNjA4IDUwLjgzNiA0MS4xMTMgNTIuODUzeiIvPiYjeGE7CTxwYXRoIGNsYXNzPSJzdDIiIGQ9Ik00MS4yNTMgMTYuNjA1Yy05LjU4NCAwLTE3LjQ0NSA3Ljg2Mi0xNy40NDUgMTcuNDQ1IDAgOC4wODQgNS41OTQgMTQuOTQyIDEzLjA5NiAxNi44OTF2OS40ODhoLTkuODY5djguNzAxaDkuODY5djUuMzc3aC02LjMxNXY4LjcwMWg2LjMxNXYyLjE5N2g4LjcwMVY1MC45NDFDNTMuMTA2IDQ4Ljk5MiA1OC43IDQyLjEzNCA1OC43IDM0LjA1YzAtOS41ODQtNy44NjMtMTcuNDQ1LTE3LjQ0Ny0xNy40NDV6bTAgOC42OTlBOC42OCA4LjY4IDAgMCAxIDUwIDM0LjA1YTguNjggOC42OCAwIDAgMS04Ljc0OCA4Ljc0NiA4LjY4IDguNjggMCAwIDEtOC43NDYtOC43NDYgOC42OCA4LjY4IDAgMCAxIDguNzQ2LTguNzQ2eiIvPiYjeGE7PC9zdmc+;" vertex="1" parent="xZK3O00M8n8B7UsS9KFt-61">
          <mxGeometry width="24" height="30" relative="1" as="geometry">
            <mxPoint x="18" y="15" as="offset" />
          </mxGeometry>
        </mxCell>
        <mxCell id="xZK3O00M8n8B7UsS9KFt-63" value="Data + ZK proof" style="text;html=1;align=center;verticalAlign=middle;whiteSpace=wrap;rounded=0;" vertex="1" parent="1">
          <mxGeometry x="1002" y="553" width="60" height="30" as="geometry" />
        </mxCell>
        <mxCell id="xZK3O00M8n8B7UsS9KFt-64" value="" style="strokeColor=#dddddd;shadow=1;strokeWidth=1;rounded=1;absoluteArcSize=1;arcSize=2;" vertex="1" parent="1">
          <mxGeometry x="820" y="563" width="170" height="60" as="geometry" />
        </mxCell>
        <mxCell id="xZK3O00M8n8B7UsS9KFt-65" value="verification key" style="editableCssRules=.*;html=1;fontColor=#999999;shape=image;verticalLabelPosition=middle;verticalAlign=middle;labelPosition=right;align=left;spacingLeft=20;part=1;points=[];imageAspect=0;image=data:image/svg+xml,PHN2ZyB4bWxucz0iaHR0cDovL3d3dy53My5vcmcvMjAwMC9zdmciIHhtbG5zOnY9Imh0dHBzOi8vdmVjdGEuaW8vbmFubyIgd2lkdGg9IjMxMC43NzU2MDY1NDM4NjAyNSIgaGVpZ2h0PSIzNzcuOTUzMDI4ODM1NTI1NDYiIHZpZXdCb3g9Ii0wLjE0MDAwMDAwMDU5NjA0NjQ1IC0wLjQ2NzAwMDAwNzYyOTM5NDUzIDgyLjIyNTk5NzkyNDgwNDY5IDEwMC4wMDAwMDc2MjkzOTQ1MyI+JiN4YTs8c3R5bGUgdHlwZT0idGV4dC9jc3MiPiYjeGE7CS5zdDB7ZmlsbDojNDI4NWY0O30mI3hhOwkuc3Qxe2ZpbGw6IzY2OWRmNjt9JiN4YTsJLnN0MntmaWxsOiNmZmY7fSYjeGE7PC9zdHlsZT4mI3hhOwk8cGF0aCBjbGFzcz0ic3QwIiBkPSJNNDAuOTczLS40NjdsNDEuMTEzIDE3LjQ5M3YyOS42NTRjMCAyNy40MTgtMjQuNjA4IDUwLjgzNi00MS4xMTMgNTIuODUzeiIvPiYjeGE7CTxwYXRoIGNsYXNzPSJzdDEiIGQ9Ik00MC45NzMtLjQ2N0wtLjE0IDE3LjAyNXYyOS42NTRjMCAyNy40MTggMjQuNjA4IDUwLjgzNiA0MS4xMTMgNTIuODUzeiIvPiYjeGE7CTxwYXRoIGNsYXNzPSJzdDIiIGQ9Ik00MS4yNTMgMTYuNjA1Yy05LjU4NCAwLTE3LjQ0NSA3Ljg2Mi0xNy40NDUgMTcuNDQ1IDAgOC4wODQgNS41OTQgMTQuOTQyIDEzLjA5NiAxNi44OTF2OS40ODhoLTkuODY5djguNzAxaDkuODY5djUuMzc3aC02LjMxNXY4LjcwMWg2LjMxNXYyLjE5N2g4LjcwMVY1MC45NDFDNTMuMTA2IDQ4Ljk5MiA1OC43IDQyLjEzNCA1OC43IDM0LjA1YzAtOS41ODQtNy44NjMtMTcuNDQ1LTE3LjQ0Ny0xNy40NDV6bTAgOC42OTlBOC42OCA4LjY4IDAgMCAxIDUwIDM0LjA1YTguNjggOC42OCAwIDAgMS04Ljc0OCA4Ljc0NiA4LjY4IDguNjggMCAwIDEtOC43NDYtOC43NDYgOC42OCA4LjY4IDAgMCAxIDguNzQ2LTguNzQ2eiIvPiYjeGE7PC9zdmc+;" vertex="1" parent="xZK3O00M8n8B7UsS9KFt-64">
          <mxGeometry width="24" height="30" relative="1" as="geometry">
            <mxPoint x="18" y="15" as="offset" />
          </mxGeometry>
        </mxCell>
        <mxCell id="xZK3O00M8n8B7UsS9KFt-66" value="Data + ZK proof" style="text;html=1;align=center;verticalAlign=middle;whiteSpace=wrap;rounded=0;" vertex="1" parent="1">
          <mxGeometry x="1002" y="743" width="60" height="30" as="geometry" />
        </mxCell>
        <mxCell id="xZK3O00M8n8B7UsS9KFt-67" value="" style="strokeColor=#dddddd;shadow=1;strokeWidth=1;rounded=1;absoluteArcSize=1;arcSize=2;" vertex="1" parent="1">
          <mxGeometry x="820" y="753" width="170" height="60" as="geometry" />
        </mxCell>
        <mxCell id="xZK3O00M8n8B7UsS9KFt-68" value="verification key" style="editableCssRules=.*;html=1;fontColor=#999999;shape=image;verticalLabelPosition=middle;verticalAlign=middle;labelPosition=right;align=left;spacingLeft=20;part=1;points=[];imageAspect=0;image=data:image/svg+xml,PHN2ZyB4bWxucz0iaHR0cDovL3d3dy53My5vcmcvMjAwMC9zdmciIHhtbG5zOnY9Imh0dHBzOi8vdmVjdGEuaW8vbmFubyIgd2lkdGg9IjMxMC43NzU2MDY1NDM4NjAyNSIgaGVpZ2h0PSIzNzcuOTUzMDI4ODM1NTI1NDYiIHZpZXdCb3g9Ii0wLjE0MDAwMDAwMDU5NjA0NjQ1IC0wLjQ2NzAwMDAwNzYyOTM5NDUzIDgyLjIyNTk5NzkyNDgwNDY5IDEwMC4wMDAwMDc2MjkzOTQ1MyI+JiN4YTs8c3R5bGUgdHlwZT0idGV4dC9jc3MiPiYjeGE7CS5zdDB7ZmlsbDojNDI4NWY0O30mI3hhOwkuc3Qxe2ZpbGw6IzY2OWRmNjt9JiN4YTsJLnN0MntmaWxsOiNmZmY7fSYjeGE7PC9zdHlsZT4mI3hhOwk8cGF0aCBjbGFzcz0ic3QwIiBkPSJNNDAuOTczLS40NjdsNDEuMTEzIDE3LjQ5M3YyOS42NTRjMCAyNy40MTgtMjQuNjA4IDUwLjgzNi00MS4xMTMgNTIuODUzeiIvPiYjeGE7CTxwYXRoIGNsYXNzPSJzdDEiIGQ9Ik00MC45NzMtLjQ2N0wtLjE0IDE3LjAyNXYyOS42NTRjMCAyNy40MTggMjQuNjA4IDUwLjgzNiA0MS4xMTMgNTIuODUzeiIvPiYjeGE7CTxwYXRoIGNsYXNzPSJzdDIiIGQ9Ik00MS4yNTMgMTYuNjA1Yy05LjU4NCAwLTE3LjQ0NSA3Ljg2Mi0xNy40NDUgMTcuNDQ1IDAgOC4wODQgNS41OTQgMTQuOTQyIDEzLjA5NiAxNi44OTF2OS40ODhoLTkuODY5djguNzAxaDkuODY5djUuMzc3aC02LjMxNXY4LjcwMWg2LjMxNXYyLjE5N2g4LjcwMVY1MC45NDFDNTMuMTA2IDQ4Ljk5MiA1OC43IDQyLjEzNCA1OC43IDM0LjA1YzAtOS41ODQtNy44NjMtMTcuNDQ1LTE3LjQ0Ny0xNy40NDV6bTAgOC42OTlBOC42OCA4LjY4IDAgMCAxIDUwIDM0LjA1YTguNjggOC42OCAwIDAgMS04Ljc0OCA4Ljc0NiA4LjY4IDguNjggMCAwIDEtOC43NDYtOC43NDYgOC42OCA4LjY4IDAgMCAxIDguNzQ2LTguNzQ2eiIvPiYjeGE7PC9zdmc+;" vertex="1" parent="xZK3O00M8n8B7UsS9KFt-67">
          <mxGeometry width="24" height="30" relative="1" as="geometry">
            <mxPoint x="18" y="15" as="offset" />
          </mxGeometry>
        </mxCell>
        <mxCell id="xZK3O00M8n8B7UsS9KFt-74" style="edgeStyle=orthogonalEdgeStyle;rounded=0;orthogonalLoop=1;jettySize=auto;html=1;entryX=0;entryY=0.5;entryDx=0;entryDy=0;" edge="1" parent="1" source="xZK3O00M8n8B7UsS9KFt-67" target="xZK3O00M8n8B7UsS9KFt-78">
          <mxGeometry relative="1" as="geometry">
            <mxPoint x="1120.2800000000002" y="591.1999999999998" as="targetPoint" />
          </mxGeometry>
        </mxCell>
        <mxCell id="xZK3O00M8n8B7UsS9KFt-75" style="edgeStyle=orthogonalEdgeStyle;rounded=0;orthogonalLoop=1;jettySize=auto;html=1;entryX=0;entryY=0.5;entryDx=0;entryDy=0;" edge="1" parent="1" source="xZK3O00M8n8B7UsS9KFt-64" target="xZK3O00M8n8B7UsS9KFt-78">
          <mxGeometry relative="1" as="geometry">
            <mxPoint x="1118.92" y="592.5" as="targetPoint" />
          </mxGeometry>
        </mxCell>
        <mxCell id="xZK3O00M8n8B7UsS9KFt-76" style="edgeStyle=orthogonalEdgeStyle;rounded=0;orthogonalLoop=1;jettySize=auto;html=1;entryX=0;entryY=0.5;entryDx=0;entryDy=0;" edge="1" parent="1" source="xZK3O00M8n8B7UsS9KFt-61" target="xZK3O00M8n8B7UsS9KFt-78">
          <mxGeometry relative="1" as="geometry">
            <mxPoint x="1121.56" y="592.5" as="targetPoint" />
          </mxGeometry>
        </mxCell>
        <mxCell id="xZK3O00M8n8B7UsS9KFt-157" style="edgeStyle=orthogonalEdgeStyle;rounded=0;orthogonalLoop=1;jettySize=auto;html=1;entryX=1;entryY=0.5;entryDx=0;entryDy=0;" edge="1" parent="1" source="xZK3O00M8n8B7UsS9KFt-158" target="xZK3O00M8n8B7UsS9KFt-263">
          <mxGeometry relative="1" as="geometry">
            <Array as="points" />
          </mxGeometry>
        </mxCell>
        <mxCell id="xZK3O00M8n8B7UsS9KFt-161" style="edgeStyle=orthogonalEdgeStyle;rounded=0;orthogonalLoop=1;jettySize=auto;html=1;entryX=1;entryY=0.5;entryDx=0;entryDy=0;" edge="1" parent="1" source="xZK3O00M8n8B7UsS9KFt-78" target="xZK3O00M8n8B7UsS9KFt-158">
          <mxGeometry relative="1" as="geometry">
            <Array as="points">
              <mxPoint x="1225" y="876" />
            </Array>
          </mxGeometry>
        </mxCell>
        <mxCell id="xZK3O00M8n8B7UsS9KFt-78" value="QUANTINIUM&lt;br&gt;LAYER 1&lt;br&gt;RPC" style="rounded=0;whiteSpace=wrap;html=1;" vertex="1" parent="1">
          <mxGeometry x="1170" y="376.5" width="110" height="433" as="geometry" />
        </mxCell>
        <mxCell id="xZK3O00M8n8B7UsS9KFt-79" value="" style="edgeStyle=orthogonalEdgeStyle;rounded=0;orthogonalLoop=1;jettySize=auto;html=1;" edge="1" parent="1" source="xZK3O00M8n8B7UsS9KFt-80" target="xZK3O00M8n8B7UsS9KFt-81">
          <mxGeometry relative="1" as="geometry" />
        </mxCell>
        <mxCell id="xZK3O00M8n8B7UsS9KFt-80" value="Verifier&lt;br&gt;Contract" style="shape=card;whiteSpace=wrap;html=1;" vertex="1" parent="1">
          <mxGeometry x="1337" y="528.5" width="80" height="100" as="geometry" />
        </mxCell>
        <mxCell id="xZK3O00M8n8B7UsS9KFt-103" value="" style="edgeStyle=orthogonalEdgeStyle;rounded=0;orthogonalLoop=1;jettySize=auto;html=1;" edge="1" parent="1" source="xZK3O00M8n8B7UsS9KFt-268" target="xZK3O00M8n8B7UsS9KFt-102">
          <mxGeometry relative="1" as="geometry" />
        </mxCell>
        <mxCell id="xZK3O00M8n8B7UsS9KFt-81" value="&lt;div&gt;Data-Aggeragator&lt;br&gt;Smart contract&lt;br&gt;&lt;/div&gt;" style="shape=card;whiteSpace=wrap;html=1;" vertex="1" parent="1">
          <mxGeometry x="1337" y="355.5" width="80" height="100" as="geometry" />
        </mxCell>
        <mxCell id="xZK3O00M8n8B7UsS9KFt-82" value="" style="edgeStyle=orthogonalEdgeStyle;rounded=0;orthogonalLoop=1;jettySize=auto;html=1;" edge="1" parent="1" source="xZK3O00M8n8B7UsS9KFt-83" target="xZK3O00M8n8B7UsS9KFt-80">
          <mxGeometry relative="1" as="geometry" />
        </mxCell>
        <mxCell id="xZK3O00M8n8B7UsS9KFt-83" value="Circom lib" style="shape=card;whiteSpace=wrap;html=1;" vertex="1" parent="1">
          <mxGeometry x="1337" y="708.5" width="80" height="100" as="geometry" />
        </mxCell>
        <mxCell id="xZK3O00M8n8B7UsS9KFt-84" style="edgeStyle=orthogonalEdgeStyle;rounded=0;orthogonalLoop=1;jettySize=auto;html=1;entryX=0;entryY=0;entryDx=0;entryDy=65;entryPerimeter=0;" edge="1" parent="1" source="xZK3O00M8n8B7UsS9KFt-78" target="xZK3O00M8n8B7UsS9KFt-80">
          <mxGeometry relative="1" as="geometry" />
        </mxCell>
        <mxCell id="xZK3O00M8n8B7UsS9KFt-87" style="edgeStyle=orthogonalEdgeStyle;rounded=0;orthogonalLoop=1;jettySize=auto;html=1;entryX=0.963;entryY=0.715;entryDx=0;entryDy=0;entryPerimeter=0;" edge="1" parent="1" source="xZK3O00M8n8B7UsS9KFt-2" target="xZK3O00M8n8B7UsS9KFt-49">
          <mxGeometry relative="1" as="geometry" />
        </mxCell>
        <mxCell id="xZK3O00M8n8B7UsS9KFt-88" style="edgeStyle=orthogonalEdgeStyle;rounded=0;orthogonalLoop=1;jettySize=auto;html=1;entryX=0.93;entryY=0.647;entryDx=0;entryDy=0;entryPerimeter=0;" edge="1" parent="1" source="xZK3O00M8n8B7UsS9KFt-9" target="xZK3O00M8n8B7UsS9KFt-54">
          <mxGeometry relative="1" as="geometry" />
        </mxCell>
        <mxCell id="xZK3O00M8n8B7UsS9KFt-89" value="Oracle Data State" style="whiteSpace=wrap;html=1;" vertex="1" parent="1">
          <mxGeometry x="1817" y="455.5" width="120" height="60" as="geometry" />
        </mxCell>
        <mxCell id="xZK3O00M8n8B7UsS9KFt-133" style="edgeStyle=orthogonalEdgeStyle;rounded=0;orthogonalLoop=1;jettySize=auto;html=1;entryX=0.5;entryY=0;entryDx=0;entryDy=0;" edge="1" parent="1" source="xZK3O00M8n8B7UsS9KFt-91" target="xZK3O00M8n8B7UsS9KFt-89">
          <mxGeometry relative="1" as="geometry">
            <Array as="points">
              <mxPoint x="1682" y="423" />
              <mxPoint x="1877" y="423" />
            </Array>
          </mxGeometry>
        </mxCell>
        <mxCell id="xZK3O00M8n8B7UsS9KFt-91" value="Data&amp;nbsp;" style="rounded=1;whiteSpace=wrap;html=1;" vertex="1" parent="1">
          <mxGeometry x="1622" y="333" width="120" height="60" as="geometry" />
        </mxCell>
        <mxCell id="xZK3O00M8n8B7UsS9KFt-96" style="edgeStyle=orthogonalEdgeStyle;rounded=0;orthogonalLoop=1;jettySize=auto;html=1;entryX=0.5;entryY=0;entryDx=0;entryDy=0;" edge="1" parent="1" source="xZK3O00M8n8B7UsS9KFt-92" target="xZK3O00M8n8B7UsS9KFt-89">
          <mxGeometry relative="1" as="geometry" />
        </mxCell>
        <mxCell id="xZK3O00M8n8B7UsS9KFt-92" value="Proofs" style="rounded=1;whiteSpace=wrap;html=1;" vertex="1" parent="1">
          <mxGeometry x="1752" y="333" width="120" height="60" as="geometry" />
        </mxCell>
        <mxCell id="xZK3O00M8n8B7UsS9KFt-97" style="edgeStyle=orthogonalEdgeStyle;rounded=0;orthogonalLoop=1;jettySize=auto;html=1;entryX=0.5;entryY=0;entryDx=0;entryDy=0;" edge="1" parent="1" source="xZK3O00M8n8B7UsS9KFt-93" target="xZK3O00M8n8B7UsS9KFt-89">
          <mxGeometry relative="1" as="geometry" />
        </mxCell>
        <mxCell id="xZK3O00M8n8B7UsS9KFt-93" value="Rewards &amp;amp; Penalties" style="rounded=1;whiteSpace=wrap;html=1;" vertex="1" parent="1">
          <mxGeometry x="1882" y="333" width="120" height="60" as="geometry" />
        </mxCell>
        <mxCell id="xZK3O00M8n8B7UsS9KFt-134" style="edgeStyle=orthogonalEdgeStyle;rounded=0;orthogonalLoop=1;jettySize=auto;html=1;entryX=0.5;entryY=0;entryDx=0;entryDy=0;" edge="1" parent="1" source="xZK3O00M8n8B7UsS9KFt-94" target="xZK3O00M8n8B7UsS9KFt-89">
          <mxGeometry relative="1" as="geometry">
            <Array as="points">
              <mxPoint x="2072" y="423" />
              <mxPoint x="1877" y="423" />
            </Array>
          </mxGeometry>
        </mxCell>
        <mxCell id="xZK3O00M8n8B7UsS9KFt-94" value="Oracle Metrics" style="rounded=1;whiteSpace=wrap;html=1;" vertex="1" parent="1">
          <mxGeometry x="2012" y="333" width="120" height="60" as="geometry" />
        </mxCell>
        <mxCell id="xZK3O00M8n8B7UsS9KFt-107" value="" style="edgeStyle=orthogonalEdgeStyle;rounded=0;orthogonalLoop=1;jettySize=auto;html=1;" edge="1" parent="1" source="xZK3O00M8n8B7UsS9KFt-102" target="xZK3O00M8n8B7UsS9KFt-106">
          <mxGeometry relative="1" as="geometry" />
        </mxCell>
        <mxCell id="xZK3O00M8n8B7UsS9KFt-102" value="Mempool" style="shape=cylinder3;whiteSpace=wrap;html=1;boundedLbl=1;backgroundOutline=1;size=15;" vertex="1" parent="1">
          <mxGeometry x="1470" y="538.5" width="80" height="95" as="geometry" />
        </mxCell>
        <mxCell id="xZK3O00M8n8B7UsS9KFt-111" value="" style="edgeStyle=orthogonalEdgeStyle;rounded=0;orthogonalLoop=1;jettySize=auto;html=1;" edge="1" parent="1" source="xZK3O00M8n8B7UsS9KFt-106" target="xZK3O00M8n8B7UsS9KFt-110">
          <mxGeometry relative="1" as="geometry" />
        </mxCell>
        <mxCell id="xZK3O00M8n8B7UsS9KFt-106" value="Quantinium Blockchain&lt;br&gt;Consensus" style="whiteSpace=wrap;html=1;" vertex="1" parent="1">
          <mxGeometry x="1610" y="537.5" width="170" height="97" as="geometry" />
        </mxCell>
        <mxCell id="xZK3O00M8n8B7UsS9KFt-119" value="" style="edgeStyle=orthogonalEdgeStyle;rounded=0;orthogonalLoop=1;jettySize=auto;html=1;" edge="1" parent="1" source="xZK3O00M8n8B7UsS9KFt-110" target="xZK3O00M8n8B7UsS9KFt-89">
          <mxGeometry relative="1" as="geometry" />
        </mxCell>
        <mxCell id="xZK3O00M8n8B7UsS9KFt-125" value="" style="edgeStyle=orthogonalEdgeStyle;rounded=0;orthogonalLoop=1;jettySize=auto;html=1;" edge="1" parent="1" source="xZK3O00M8n8B7UsS9KFt-110" target="xZK3O00M8n8B7UsS9KFt-120">
          <mxGeometry relative="1" as="geometry" />
        </mxCell>
        <mxCell id="xZK3O00M8n8B7UsS9KFt-274" value="" style="edgeStyle=orthogonalEdgeStyle;rounded=0;orthogonalLoop=1;jettySize=auto;html=1;" edge="1" parent="1" source="xZK3O00M8n8B7UsS9KFt-110" target="xZK3O00M8n8B7UsS9KFt-272">
          <mxGeometry relative="1" as="geometry" />
        </mxCell>
        <mxCell id="xZK3O00M8n8B7UsS9KFt-110" value="Block Finality" style="whiteSpace=wrap;html=1;" vertex="1" parent="1">
          <mxGeometry x="1817" y="556" width="120" height="60" as="geometry" />
        </mxCell>
        <mxCell id="xZK3O00M8n8B7UsS9KFt-120" value="Core States" style="whiteSpace=wrap;html=1;" vertex="1" parent="1">
          <mxGeometry x="1817" y="653" width="120" height="60" as="geometry" />
        </mxCell>
        <mxCell id="xZK3O00M8n8B7UsS9KFt-132" style="edgeStyle=orthogonalEdgeStyle;rounded=0;orthogonalLoop=1;jettySize=auto;html=1;entryX=0.5;entryY=1;entryDx=0;entryDy=0;" edge="1" parent="1" source="xZK3O00M8n8B7UsS9KFt-121" target="xZK3O00M8n8B7UsS9KFt-120">
          <mxGeometry relative="1" as="geometry">
            <Array as="points">
              <mxPoint x="1750" y="733" />
              <mxPoint x="1945" y="733" />
            </Array>
          </mxGeometry>
        </mxCell>
        <mxCell id="xZK3O00M8n8B7UsS9KFt-121" value="Accounts" style="rounded=1;whiteSpace=wrap;html=1;" vertex="1" parent="1">
          <mxGeometry x="1622" y="749.5" width="120" height="60" as="geometry" />
        </mxCell>
        <mxCell id="xZK3O00M8n8B7UsS9KFt-122" value="Transaction" style="rounded=1;whiteSpace=wrap;html=1;" vertex="1" parent="1">
          <mxGeometry x="1752" y="749.5" width="120" height="60" as="geometry" />
        </mxCell>
        <mxCell id="xZK3O00M8n8B7UsS9KFt-129" style="edgeStyle=orthogonalEdgeStyle;rounded=0;orthogonalLoop=1;jettySize=auto;html=1;entryX=0.5;entryY=1;entryDx=0;entryDy=0;" edge="1" parent="1" source="xZK3O00M8n8B7UsS9KFt-123" target="xZK3O00M8n8B7UsS9KFt-120">
          <mxGeometry relative="1" as="geometry" />
        </mxCell>
        <mxCell id="xZK3O00M8n8B7UsS9KFt-123" value="Blocks" style="rounded=1;whiteSpace=wrap;html=1;" vertex="1" parent="1">
          <mxGeometry x="1882" y="749.5" width="120" height="60" as="geometry" />
        </mxCell>
        <mxCell id="xZK3O00M8n8B7UsS9KFt-131" style="edgeStyle=orthogonalEdgeStyle;rounded=0;orthogonalLoop=1;jettySize=auto;html=1;entryX=0.5;entryY=1;entryDx=0;entryDy=0;" edge="1" parent="1" source="xZK3O00M8n8B7UsS9KFt-124" target="xZK3O00M8n8B7UsS9KFt-120">
          <mxGeometry relative="1" as="geometry">
            <Array as="points">
              <mxPoint x="2072" y="733" />
              <mxPoint x="1877" y="733" />
            </Array>
          </mxGeometry>
        </mxCell>
        <mxCell id="xZK3O00M8n8B7UsS9KFt-124" value="Oracle Metrics" style="rounded=1;whiteSpace=wrap;html=1;" vertex="1" parent="1">
          <mxGeometry x="2012" y="749.5" width="120" height="60" as="geometry" />
        </mxCell>
        <mxCell id="xZK3O00M8n8B7UsS9KFt-128" style="edgeStyle=orthogonalEdgeStyle;rounded=0;orthogonalLoop=1;jettySize=auto;html=1;entryX=0.497;entryY=0.937;entryDx=0;entryDy=0;entryPerimeter=0;" edge="1" parent="1" source="xZK3O00M8n8B7UsS9KFt-122" target="xZK3O00M8n8B7UsS9KFt-120">
          <mxGeometry relative="1" as="geometry" />
        </mxCell>
        <mxCell id="xZK3O00M8n8B7UsS9KFt-141" value="&lt;h1 style=&quot;margin-top: 0px;&quot;&gt;QUANTINIUM LAYER 1&lt;/h1&gt;" style="text;html=1;whiteSpace=wrap;overflow=hidden;rounded=0;" vertex="1" parent="1">
          <mxGeometry x="1090" y="170" width="270" height="47" as="geometry" />
        </mxCell>
        <mxCell id="xZK3O00M8n8B7UsS9KFt-142" value="Heartbeat TX" style="rounded=0;whiteSpace=wrap;html=1;" vertex="1" parent="1">
          <mxGeometry x="396" y="446" width="114" height="37" as="geometry" />
        </mxCell>
        <mxCell id="xZK3O00M8n8B7UsS9KFt-143" value="Heartbeat TX" style="rounded=0;whiteSpace=wrap;html=1;" vertex="1" parent="1">
          <mxGeometry x="396" y="636" width="114" height="37" as="geometry" />
        </mxCell>
        <mxCell id="xZK3O00M8n8B7UsS9KFt-149" style="edgeStyle=orthogonalEdgeStyle;rounded=0;orthogonalLoop=1;jettySize=auto;html=1;entryX=0.016;entryY=0.206;entryDx=0;entryDy=0;entryPerimeter=0;" edge="1" parent="1" source="xZK3O00M8n8B7UsS9KFt-142" target="xZK3O00M8n8B7UsS9KFt-78">
          <mxGeometry relative="1" as="geometry" />
        </mxCell>
        <mxCell id="xZK3O00M8n8B7UsS9KFt-151" style="edgeStyle=orthogonalEdgeStyle;rounded=0;orthogonalLoop=1;jettySize=auto;html=1;entryX=0.047;entryY=0.64;entryDx=0;entryDy=0;entryPerimeter=0;" edge="1" parent="1" source="xZK3O00M8n8B7UsS9KFt-143" target="xZK3O00M8n8B7UsS9KFt-78">
          <mxGeometry relative="1" as="geometry" />
        </mxCell>
        <mxCell id="xZK3O00M8n8B7UsS9KFt-154" value="Beacon/Witness&lt;br&gt;Data" style="text;html=1;align=center;verticalAlign=middle;whiteSpace=wrap;rounded=0;" vertex="1" parent="1">
          <mxGeometry x="280" y="483" width="60" height="23" as="geometry" />
        </mxCell>
        <mxCell id="xZK3O00M8n8B7UsS9KFt-156" value="" style="edgeStyle=orthogonalEdgeStyle;rounded=0;orthogonalLoop=1;jettySize=auto;html=1;" edge="1" parent="1" source="xZK3O00M8n8B7UsS9KFt-155" target="xZK3O00M8n8B7UsS9KFt-9">
          <mxGeometry relative="1" as="geometry">
            <Array as="points">
              <mxPoint x="410" y="776" />
            </Array>
          </mxGeometry>
        </mxCell>
        <mxCell id="xZK3O00M8n8B7UsS9KFt-155" value="Data Resubmission" style="rounded=0;whiteSpace=wrap;html=1;" vertex="1" parent="1">
          <mxGeometry x="350" y="858" width="114" height="37" as="geometry" />
        </mxCell>
        <mxCell id="xZK3O00M8n8B7UsS9KFt-158" value="new_block event" style="text;html=1;align=center;verticalAlign=middle;whiteSpace=wrap;rounded=0;strokeColor=default;" vertex="1" parent="1">
          <mxGeometry x="661.5" y="865" width="205" height="23" as="geometry" />
        </mxCell>
        <mxCell id="xZK3O00M8n8B7UsS9KFt-162" value="" style="rounded=0;whiteSpace=wrap;html=1;" vertex="1" parent="1">
          <mxGeometry x="3150" y="1218.5" width="2210" height="800" as="geometry" />
        </mxCell>
        <mxCell id="xZK3O00M8n8B7UsS9KFt-254" value="&lt;h1 style=&quot;margin-top: 0px;&quot;&gt;QUANTINIUM LAYER 2&lt;/h1&gt;" style="text;html=1;whiteSpace=wrap;overflow=hidden;rounded=0;" vertex="1" parent="1">
          <mxGeometry x="1100" y="1210" width="270" height="47" as="geometry" />
        </mxCell>
        <mxCell id="xZK3O00M8n8B7UsS9KFt-265" value="" style="edgeStyle=orthogonalEdgeStyle;rounded=0;orthogonalLoop=1;jettySize=auto;html=1;" edge="1" parent="1" source="xZK3O00M8n8B7UsS9KFt-263" target="xZK3O00M8n8B7UsS9KFt-155">
          <mxGeometry relative="1" as="geometry" />
        </mxCell>
        <mxCell id="xZK3O00M8n8B7UsS9KFt-263" value="Websocket listner" style="rounded=0;whiteSpace=wrap;html=1;" vertex="1" parent="1">
          <mxGeometry x="489" y="858" width="114" height="37" as="geometry" />
        </mxCell>
        <mxCell id="xZK3O00M8n8B7UsS9KFt-266" value="on_newblock" style="text;html=1;align=center;verticalAlign=middle;whiteSpace=wrap;rounded=0;" vertex="1" parent="1">
          <mxGeometry x="420" y="810" width="60" height="23" as="geometry" />
        </mxCell>
        <mxCell id="xZK3O00M8n8B7UsS9KFt-269" style="edgeStyle=orthogonalEdgeStyle;rounded=0;orthogonalLoop=1;jettySize=auto;html=1;" edge="1" parent="1" source="xZK3O00M8n8B7UsS9KFt-268" target="xZK3O00M8n8B7UsS9KFt-268">
          <mxGeometry relative="1" as="geometry" />
        </mxCell>
        <mxCell id="xZK3O00M8n8B7UsS9KFt-270" value="Include Transaction in the processing block" style="text;html=1;align=center;verticalAlign=middle;whiteSpace=wrap;rounded=0;" vertex="1" parent="1">
          <mxGeometry x="1446" y="333" width="128" height="30" as="geometry" />
        </mxCell>
        <mxCell id="xZK3O00M8n8B7UsS9KFt-271" value="" style="edgeStyle=orthogonalEdgeStyle;rounded=0;orthogonalLoop=1;jettySize=auto;html=1;" edge="1" parent="1" source="xZK3O00M8n8B7UsS9KFt-81" target="xZK3O00M8n8B7UsS9KFt-268">
          <mxGeometry relative="1" as="geometry">
            <mxPoint x="1417" y="406" as="sourcePoint" />
            <mxPoint x="1510" y="539" as="targetPoint" />
          </mxGeometry>
        </mxCell>
        <mxCell id="xZK3O00M8n8B7UsS9KFt-268" value="Initiate Oracle reward&lt;br&gt;TX" style="whiteSpace=wrap;html=1;" vertex="1" parent="1">
          <mxGeometry x="1450" y="375.5" width="120" height="60" as="geometry" />
        </mxCell>
        <mxCell id="xZK3O00M8n8B7UsS9KFt-273" style="edgeStyle=orthogonalEdgeStyle;rounded=0;orthogonalLoop=1;jettySize=auto;html=1;entryX=1;entryY=0.5;entryDx=0;entryDy=0;" edge="1" parent="1" source="xZK3O00M8n8B7UsS9KFt-272" target="xZK3O00M8n8B7UsS9KFt-89">
          <mxGeometry relative="1" as="geometry">
            <Array as="points">
              <mxPoint x="2040" y="485" />
            </Array>
          </mxGeometry>
        </mxCell>
        <mxCell id="xZK3O00M8n8B7UsS9KFt-272" value="Confirmed Oracle reward&lt;br&gt;TX&lt;br&gt;&amp;amp; State settlement" style="whiteSpace=wrap;html=1;" vertex="1" parent="1">
          <mxGeometry x="1980" y="556" width="120" height="60" as="geometry" />
        </mxCell>
        <mxCell id="xZK3O00M8n8B7UsS9KFt-275" style="edgeStyle=orthogonalEdgeStyle;rounded=0;orthogonalLoop=1;jettySize=auto;html=1;entryX=1.007;entryY=0.587;entryDx=0;entryDy=0;entryPerimeter=0;" edge="1" parent="1" source="xZK3O00M8n8B7UsS9KFt-272" target="xZK3O00M8n8B7UsS9KFt-120">
          <mxGeometry relative="1" as="geometry">
            <Array as="points">
              <mxPoint x="2040" y="688" />
            </Array>
          </mxGeometry>
        </mxCell>
        <mxCell id="xZK3O00M8n8B7UsS9KFt-276" value="Oracle Node" style="shape=cube;whiteSpace=wrap;html=1;boundedLbl=1;backgroundOutline=1;darkOpacity=0.05;darkOpacity2=0.1;" vertex="1" parent="1">
          <mxGeometry x="530" y="1573" width="120" height="80" as="geometry" />
        </mxCell>
        <mxCell id="xZK3O00M8n8B7UsS9KFt-277" value="" style="edgeStyle=orthogonalEdgeStyle;rounded=0;orthogonalLoop=1;jettySize=auto;html=1;" edge="1" parent="1" source="xZK3O00M8n8B7UsS9KFt-281" target="xZK3O00M8n8B7UsS9KFt-276">
          <mxGeometry relative="1" as="geometry" />
        </mxCell>
        <mxCell id="xZK3O00M8n8B7UsS9KFt-278" value="" style="edgeStyle=orthogonalEdgeStyle;rounded=0;orthogonalLoop=1;jettySize=auto;html=1;startArrow=classic;startFill=1;dashed=1;" edge="1" parent="1" source="xZK3O00M8n8B7UsS9KFt-281" target="xZK3O00M8n8B7UsS9KFt-291">
          <mxGeometry relative="1" as="geometry" />
        </mxCell>
        <mxCell id="xZK3O00M8n8B7UsS9KFt-279" style="edgeStyle=orthogonalEdgeStyle;rounded=0;orthogonalLoop=1;jettySize=auto;html=1;" edge="1" parent="1" source="xZK3O00M8n8B7UsS9KFt-281" target="xZK3O00M8n8B7UsS9KFt-366">
          <mxGeometry relative="1" as="geometry">
            <Array as="points">
              <mxPoint x="497" y="1613" />
            </Array>
          </mxGeometry>
        </mxCell>
        <mxCell id="xZK3O00M8n8B7UsS9KFt-280" style="edgeStyle=orthogonalEdgeStyle;rounded=0;orthogonalLoop=1;jettySize=auto;html=1;entryX=0.5;entryY=1;entryDx=0;entryDy=0;" edge="1" parent="1" source="xZK3O00M8n8B7UsS9KFt-281" target="xZK3O00M8n8B7UsS9KFt-365">
          <mxGeometry relative="1" as="geometry">
            <Array as="points">
              <mxPoint x="497" y="1613" />
            </Array>
          </mxGeometry>
        </mxCell>
        <mxCell id="xZK3O00M8n8B7UsS9KFt-281" value="Hotspot" style="shape=cylinder3;whiteSpace=wrap;html=1;boundedLbl=1;backgroundOutline=1;size=15;" vertex="1" parent="1">
          <mxGeometry x="380" y="1573" width="60" height="80" as="geometry" />
        </mxCell>
        <mxCell id="xZK3O00M8n8B7UsS9KFt-282" value="" style="edgeStyle=orthogonalEdgeStyle;rounded=0;orthogonalLoop=1;jettySize=auto;html=1;" edge="1" parent="1" source="xZK3O00M8n8B7UsS9KFt-283" target="xZK3O00M8n8B7UsS9KFt-299">
          <mxGeometry relative="1" as="geometry" />
        </mxCell>
        <mxCell id="xZK3O00M8n8B7UsS9KFt-283" value="Oracle Node" style="shape=cube;whiteSpace=wrap;html=1;boundedLbl=1;backgroundOutline=1;darkOpacity=0.05;darkOpacity2=0.1;" vertex="1" parent="1">
          <mxGeometry x="530" y="1380" width="120" height="80" as="geometry" />
        </mxCell>
        <mxCell id="xZK3O00M8n8B7UsS9KFt-284" value="" style="edgeStyle=orthogonalEdgeStyle;rounded=0;orthogonalLoop=1;jettySize=auto;html=1;" edge="1" parent="1" source="xZK3O00M8n8B7UsS9KFt-286" target="xZK3O00M8n8B7UsS9KFt-283">
          <mxGeometry relative="1" as="geometry" />
        </mxCell>
        <mxCell id="xZK3O00M8n8B7UsS9KFt-285" style="edgeStyle=orthogonalEdgeStyle;rounded=0;orthogonalLoop=1;jettySize=auto;html=1;" edge="1" parent="1" source="xZK3O00M8n8B7UsS9KFt-286" target="xZK3O00M8n8B7UsS9KFt-365">
          <mxGeometry relative="1" as="geometry">
            <Array as="points">
              <mxPoint x="497" y="1420" />
            </Array>
          </mxGeometry>
        </mxCell>
        <mxCell id="xZK3O00M8n8B7UsS9KFt-286" value="Hotspot" style="shape=cylinder3;whiteSpace=wrap;html=1;boundedLbl=1;backgroundOutline=1;size=15;" vertex="1" parent="1">
          <mxGeometry x="380" y="1380" width="60" height="80" as="geometry" />
        </mxCell>
        <mxCell id="xZK3O00M8n8B7UsS9KFt-287" style="edgeStyle=orthogonalEdgeStyle;rounded=0;orthogonalLoop=1;jettySize=auto;html=1;startArrow=classicThin;startFill=1;" edge="1" parent="1" source="xZK3O00M8n8B7UsS9KFt-288" target="xZK3O00M8n8B7UsS9KFt-374">
          <mxGeometry relative="1" as="geometry" />
        </mxCell>
        <mxCell id="xZK3O00M8n8B7UsS9KFt-288" value="Oracle Node" style="shape=cube;whiteSpace=wrap;html=1;boundedLbl=1;backgroundOutline=1;darkOpacity=0.05;darkOpacity2=0.1;" vertex="1" parent="1">
          <mxGeometry x="530" y="1763" width="120" height="80" as="geometry" />
        </mxCell>
        <mxCell id="xZK3O00M8n8B7UsS9KFt-289" value="" style="edgeStyle=orthogonalEdgeStyle;rounded=0;orthogonalLoop=1;jettySize=auto;html=1;" edge="1" parent="1" source="xZK3O00M8n8B7UsS9KFt-291" target="xZK3O00M8n8B7UsS9KFt-288">
          <mxGeometry relative="1" as="geometry" />
        </mxCell>
        <mxCell id="xZK3O00M8n8B7UsS9KFt-290" style="edgeStyle=orthogonalEdgeStyle;rounded=0;orthogonalLoop=1;jettySize=auto;html=1;entryX=0.5;entryY=1;entryDx=0;entryDy=0;" edge="1" parent="1" source="xZK3O00M8n8B7UsS9KFt-291" target="xZK3O00M8n8B7UsS9KFt-366">
          <mxGeometry relative="1" as="geometry">
            <Array as="points">
              <mxPoint x="497" y="1803" />
            </Array>
          </mxGeometry>
        </mxCell>
        <mxCell id="xZK3O00M8n8B7UsS9KFt-291" value="Hotspot" style="shape=cylinder3;whiteSpace=wrap;html=1;boundedLbl=1;backgroundOutline=1;size=15;" vertex="1" parent="1">
          <mxGeometry x="380" y="1763" width="60" height="80" as="geometry" />
        </mxCell>
        <mxCell id="xZK3O00M8n8B7UsS9KFt-292" style="edgeStyle=orthogonalEdgeStyle;rounded=0;orthogonalLoop=1;jettySize=auto;html=1;entryX=0.5;entryY=1;entryDx=0;entryDy=0;entryPerimeter=0;startArrow=classic;startFill=1;dashed=1;" edge="1" parent="1" source="xZK3O00M8n8B7UsS9KFt-281" target="xZK3O00M8n8B7UsS9KFt-286">
          <mxGeometry relative="1" as="geometry" />
        </mxCell>
        <mxCell id="xZK3O00M8n8B7UsS9KFt-293" style="edgeStyle=orthogonalEdgeStyle;rounded=0;orthogonalLoop=1;jettySize=auto;html=1;startArrow=classic;startFill=1;dashed=1;exitX=-0.104;exitY=0.656;exitDx=0;exitDy=0;exitPerimeter=0;" edge="1" parent="1" source="xZK3O00M8n8B7UsS9KFt-291">
          <mxGeometry relative="1" as="geometry">
            <mxPoint x="354.0000000000001" y="1815" as="sourcePoint" />
            <mxPoint x="374" y="1425" as="targetPoint" />
            <Array as="points">
              <mxPoint x="294" y="1816" />
              <mxPoint x="294" y="1425" />
            </Array>
          </mxGeometry>
        </mxCell>
        <mxCell id="xZK3O00M8n8B7UsS9KFt-294" value="Beacon/Witness&lt;br&gt;Data" style="text;html=1;align=center;verticalAlign=middle;whiteSpace=wrap;rounded=0;" vertex="1" parent="1">
          <mxGeometry x="324" y="1700" width="60" height="23" as="geometry" />
        </mxCell>
        <mxCell id="xZK3O00M8n8B7UsS9KFt-295" value="Data + ZK proof" style="text;html=1;align=center;verticalAlign=middle;whiteSpace=wrap;rounded=0;" vertex="1" parent="1">
          <mxGeometry x="1046" y="1380" width="60" height="30" as="geometry" />
        </mxCell>
        <mxCell id="xZK3O00M8n8B7UsS9KFt-296" value="Data + ZK proof" style="text;html=1;align=center;verticalAlign=middle;whiteSpace=wrap;rounded=0;" vertex="1" parent="1">
          <mxGeometry x="660" y="1580" width="60" height="30" as="geometry" />
        </mxCell>
        <mxCell id="xZK3O00M8n8B7UsS9KFt-297" value="Data + ZK proof" style="text;html=1;align=center;verticalAlign=middle;whiteSpace=wrap;rounded=0;" vertex="1" parent="1">
          <mxGeometry x="660" y="1770" width="60" height="30" as="geometry" />
        </mxCell>
        <mxCell id="xZK3O00M8n8B7UsS9KFt-298" style="edgeStyle=orthogonalEdgeStyle;rounded=0;orthogonalLoop=1;jettySize=auto;html=1;entryX=0;entryY=0.5;entryDx=0;entryDy=0;" edge="1" parent="1" source="xZK3O00M8n8B7UsS9KFt-299" target="xZK3O00M8n8B7UsS9KFt-316">
          <mxGeometry relative="1" as="geometry" />
        </mxCell>
        <mxCell id="xZK3O00M8n8B7UsS9KFt-299" value="Circom circuit" style="rounded=0;whiteSpace=wrap;html=1;" vertex="1" parent="1">
          <mxGeometry x="720" y="1395" width="90" height="50" as="geometry" />
        </mxCell>
        <mxCell id="xZK3O00M8n8B7UsS9KFt-300" style="edgeStyle=orthogonalEdgeStyle;rounded=0;orthogonalLoop=1;jettySize=auto;html=1;entryX=0.5;entryY=0;entryDx=0;entryDy=0;" edge="1" parent="1" source="xZK3O00M8n8B7UsS9KFt-301" target="xZK3O00M8n8B7UsS9KFt-299">
          <mxGeometry relative="1" as="geometry">
            <Array as="points">
              <mxPoint x="765" y="1330" />
            </Array>
          </mxGeometry>
        </mxCell>
        <mxCell id="xZK3O00M8n8B7UsS9KFt-301" value="Signal inputs" style="shape=mxgraph.uml25.action;html=1;align=center;verticalAlign=middle;absoluteArcSize=1;arcSize=10;dashed=0;spacingLeft=10;flipH=1;whiteSpace=wrap;" vertex="1" parent="1">
          <mxGeometry x="585" y="1310" width="110" height="40" as="geometry" />
        </mxCell>
        <mxCell id="xZK3O00M8n8B7UsS9KFt-302" value="Oracle data" style="text;verticalAlign=middle;align=right;html=1;" vertex="1" parent="xZK3O00M8n8B7UsS9KFt-301">
          <mxGeometry x="-60" width="60" height="40" as="geometry" />
        </mxCell>
        <mxCell id="xZK3O00M8n8B7UsS9KFt-303" style="edgeStyle=orthogonalEdgeStyle;rounded=0;orthogonalLoop=1;jettySize=auto;html=1;entryX=0.952;entryY=0.665;entryDx=0;entryDy=0;entryPerimeter=0;" edge="1" parent="1" source="xZK3O00M8n8B7UsS9KFt-283" target="xZK3O00M8n8B7UsS9KFt-301">
          <mxGeometry relative="1" as="geometry" />
        </mxCell>
        <mxCell id="xZK3O00M8n8B7UsS9KFt-304" value="" style="edgeStyle=orthogonalEdgeStyle;rounded=0;orthogonalLoop=1;jettySize=auto;html=1;" edge="1" parent="1" target="xZK3O00M8n8B7UsS9KFt-306">
          <mxGeometry relative="1" as="geometry">
            <mxPoint x="650" y="1620" as="sourcePoint" />
          </mxGeometry>
        </mxCell>
        <mxCell id="xZK3O00M8n8B7UsS9KFt-305" style="edgeStyle=orthogonalEdgeStyle;rounded=0;orthogonalLoop=1;jettySize=auto;html=1;entryX=0;entryY=0.5;entryDx=0;entryDy=0;" edge="1" parent="1" source="xZK3O00M8n8B7UsS9KFt-306" target="xZK3O00M8n8B7UsS9KFt-319">
          <mxGeometry relative="1" as="geometry" />
        </mxCell>
        <mxCell id="xZK3O00M8n8B7UsS9KFt-306" value="Circom circuit" style="rounded=0;whiteSpace=wrap;html=1;" vertex="1" parent="1">
          <mxGeometry x="720" y="1595" width="90" height="50" as="geometry" />
        </mxCell>
        <mxCell id="xZK3O00M8n8B7UsS9KFt-307" style="edgeStyle=orthogonalEdgeStyle;rounded=0;orthogonalLoop=1;jettySize=auto;html=1;entryX=0.5;entryY=0;entryDx=0;entryDy=0;" edge="1" parent="1" source="xZK3O00M8n8B7UsS9KFt-308" target="xZK3O00M8n8B7UsS9KFt-306">
          <mxGeometry relative="1" as="geometry">
            <Array as="points">
              <mxPoint x="765" y="1530" />
            </Array>
          </mxGeometry>
        </mxCell>
        <mxCell id="xZK3O00M8n8B7UsS9KFt-308" value="Signal inputs" style="shape=mxgraph.uml25.action;html=1;align=center;verticalAlign=middle;absoluteArcSize=1;arcSize=10;dashed=0;spacingLeft=10;flipH=1;whiteSpace=wrap;" vertex="1" parent="1">
          <mxGeometry x="585" y="1510" width="110" height="40" as="geometry" />
        </mxCell>
        <mxCell id="xZK3O00M8n8B7UsS9KFt-309" value="Oracle data" style="text;verticalAlign=middle;align=right;html=1;" vertex="1" parent="xZK3O00M8n8B7UsS9KFt-308">
          <mxGeometry x="-60" width="60" height="40" as="geometry" />
        </mxCell>
        <mxCell id="xZK3O00M8n8B7UsS9KFt-310" value="" style="edgeStyle=orthogonalEdgeStyle;rounded=0;orthogonalLoop=1;jettySize=auto;html=1;" edge="1" parent="1" target="xZK3O00M8n8B7UsS9KFt-312">
          <mxGeometry relative="1" as="geometry">
            <mxPoint x="648" y="1810" as="sourcePoint" />
          </mxGeometry>
        </mxCell>
        <mxCell id="xZK3O00M8n8B7UsS9KFt-311" style="edgeStyle=orthogonalEdgeStyle;rounded=0;orthogonalLoop=1;jettySize=auto;html=1;entryX=0;entryY=0.5;entryDx=0;entryDy=0;" edge="1" parent="1" source="xZK3O00M8n8B7UsS9KFt-312" target="xZK3O00M8n8B7UsS9KFt-322">
          <mxGeometry relative="1" as="geometry" />
        </mxCell>
        <mxCell id="xZK3O00M8n8B7UsS9KFt-312" value="Circom circuit" style="rounded=0;whiteSpace=wrap;html=1;" vertex="1" parent="1">
          <mxGeometry x="718" y="1785" width="90" height="50" as="geometry" />
        </mxCell>
        <mxCell id="xZK3O00M8n8B7UsS9KFt-313" style="edgeStyle=orthogonalEdgeStyle;rounded=0;orthogonalLoop=1;jettySize=auto;html=1;entryX=0.5;entryY=0;entryDx=0;entryDy=0;" edge="1" parent="1" source="xZK3O00M8n8B7UsS9KFt-314" target="xZK3O00M8n8B7UsS9KFt-312">
          <mxGeometry relative="1" as="geometry">
            <Array as="points">
              <mxPoint x="763" y="1720" />
            </Array>
          </mxGeometry>
        </mxCell>
        <mxCell id="xZK3O00M8n8B7UsS9KFt-314" value="Signal inputs" style="shape=mxgraph.uml25.action;html=1;align=center;verticalAlign=middle;absoluteArcSize=1;arcSize=10;dashed=0;spacingLeft=10;flipH=1;whiteSpace=wrap;" vertex="1" parent="1">
          <mxGeometry x="583" y="1700" width="110" height="40" as="geometry" />
        </mxCell>
        <mxCell id="xZK3O00M8n8B7UsS9KFt-315" value="Oracle data" style="text;verticalAlign=middle;align=right;html=1;" vertex="1" parent="xZK3O00M8n8B7UsS9KFt-314">
          <mxGeometry x="-60" width="60" height="40" as="geometry" />
        </mxCell>
        <mxCell id="xZK3O00M8n8B7UsS9KFt-316" value="" style="strokeColor=#dddddd;shadow=1;strokeWidth=1;rounded=1;absoluteArcSize=1;arcSize=2;" vertex="1" parent="1">
          <mxGeometry x="864" y="1390" width="170" height="60" as="geometry" />
        </mxCell>
        <mxCell id="xZK3O00M8n8B7UsS9KFt-317" value="verification key" style="editableCssRules=.*;html=1;fontColor=#999999;shape=image;verticalLabelPosition=middle;verticalAlign=middle;labelPosition=right;align=left;spacingLeft=20;part=1;points=[];imageAspect=0;image=data:image/svg+xml,PHN2ZyB4bWxucz0iaHR0cDovL3d3dy53My5vcmcvMjAwMC9zdmciIHhtbG5zOnY9Imh0dHBzOi8vdmVjdGEuaW8vbmFubyIgd2lkdGg9IjMxMC43NzU2MDY1NDM4NjAyNSIgaGVpZ2h0PSIzNzcuOTUzMDI4ODM1NTI1NDYiIHZpZXdCb3g9Ii0wLjE0MDAwMDAwMDU5NjA0NjQ1IC0wLjQ2NzAwMDAwNzYyOTM5NDUzIDgyLjIyNTk5NzkyNDgwNDY5IDEwMC4wMDAwMDc2MjkzOTQ1MyI+JiN4YTs8c3R5bGUgdHlwZT0idGV4dC9jc3MiPiYjeGE7CS5zdDB7ZmlsbDojNDI4NWY0O30mI3hhOwkuc3Qxe2ZpbGw6IzY2OWRmNjt9JiN4YTsJLnN0MntmaWxsOiNmZmY7fSYjeGE7PC9zdHlsZT4mI3hhOwk8cGF0aCBjbGFzcz0ic3QwIiBkPSJNNDAuOTczLS40NjdsNDEuMTEzIDE3LjQ5M3YyOS42NTRjMCAyNy40MTgtMjQuNjA4IDUwLjgzNi00MS4xMTMgNTIuODUzeiIvPiYjeGE7CTxwYXRoIGNsYXNzPSJzdDEiIGQ9Ik00MC45NzMtLjQ2N0wtLjE0IDE3LjAyNXYyOS42NTRjMCAyNy40MTggMjQuNjA4IDUwLjgzNiA0MS4xMTMgNTIuODUzeiIvPiYjeGE7CTxwYXRoIGNsYXNzPSJzdDIiIGQ9Ik00MS4yNTMgMTYuNjA1Yy05LjU4NCAwLTE3LjQ0NSA3Ljg2Mi0xNy40NDUgMTcuNDQ1IDAgOC4wODQgNS41OTQgMTQuOTQyIDEzLjA5NiAxNi44OTF2OS40ODhoLTkuODY5djguNzAxaDkuODY5djUuMzc3aC02LjMxNXY4LjcwMWg2LjMxNXYyLjE5N2g4LjcwMVY1MC45NDFDNTMuMTA2IDQ4Ljk5MiA1OC43IDQyLjEzNCA1OC43IDM0LjA1YzAtOS41ODQtNy44NjMtMTcuNDQ1LTE3LjQ0Ny0xNy40NDV6bTAgOC42OTlBOC42OCA4LjY4IDAgMCAxIDUwIDM0LjA1YTguNjggOC42OCAwIDAgMS04Ljc0OCA4Ljc0NiA4LjY4IDguNjggMCAwIDEtOC43NDYtOC43NDYgOC42OCA4LjY4IDAgMCAxIDguNzQ2LTguNzQ2eiIvPiYjeGE7PC9zdmc+;" vertex="1" parent="xZK3O00M8n8B7UsS9KFt-316">
          <mxGeometry width="24" height="30" relative="1" as="geometry">
            <mxPoint x="18" y="15" as="offset" />
          </mxGeometry>
        </mxCell>
        <mxCell id="xZK3O00M8n8B7UsS9KFt-318" value="Data + ZK proof" style="text;html=1;align=center;verticalAlign=middle;whiteSpace=wrap;rounded=0;" vertex="1" parent="1">
          <mxGeometry x="1046" y="1580" width="60" height="30" as="geometry" />
        </mxCell>
        <mxCell id="xZK3O00M8n8B7UsS9KFt-319" value="" style="strokeColor=#dddddd;shadow=1;strokeWidth=1;rounded=1;absoluteArcSize=1;arcSize=2;" vertex="1" parent="1">
          <mxGeometry x="864" y="1590" width="170" height="60" as="geometry" />
        </mxCell>
        <mxCell id="xZK3O00M8n8B7UsS9KFt-320" value="verification key" style="editableCssRules=.*;html=1;fontColor=#999999;shape=image;verticalLabelPosition=middle;verticalAlign=middle;labelPosition=right;align=left;spacingLeft=20;part=1;points=[];imageAspect=0;image=data:image/svg+xml,PHN2ZyB4bWxucz0iaHR0cDovL3d3dy53My5vcmcvMjAwMC9zdmciIHhtbG5zOnY9Imh0dHBzOi8vdmVjdGEuaW8vbmFubyIgd2lkdGg9IjMxMC43NzU2MDY1NDM4NjAyNSIgaGVpZ2h0PSIzNzcuOTUzMDI4ODM1NTI1NDYiIHZpZXdCb3g9Ii0wLjE0MDAwMDAwMDU5NjA0NjQ1IC0wLjQ2NzAwMDAwNzYyOTM5NDUzIDgyLjIyNTk5NzkyNDgwNDY5IDEwMC4wMDAwMDc2MjkzOTQ1MyI+JiN4YTs8c3R5bGUgdHlwZT0idGV4dC9jc3MiPiYjeGE7CS5zdDB7ZmlsbDojNDI4NWY0O30mI3hhOwkuc3Qxe2ZpbGw6IzY2OWRmNjt9JiN4YTsJLnN0MntmaWxsOiNmZmY7fSYjeGE7PC9zdHlsZT4mI3hhOwk8cGF0aCBjbGFzcz0ic3QwIiBkPSJNNDAuOTczLS40NjdsNDEuMTEzIDE3LjQ5M3YyOS42NTRjMCAyNy40MTgtMjQuNjA4IDUwLjgzNi00MS4xMTMgNTIuODUzeiIvPiYjeGE7CTxwYXRoIGNsYXNzPSJzdDEiIGQ9Ik00MC45NzMtLjQ2N0wtLjE0IDE3LjAyNXYyOS42NTRjMCAyNy40MTggMjQuNjA4IDUwLjgzNiA0MS4xMTMgNTIuODUzeiIvPiYjeGE7CTxwYXRoIGNsYXNzPSJzdDIiIGQ9Ik00MS4yNTMgMTYuNjA1Yy05LjU4NCAwLTE3LjQ0NSA3Ljg2Mi0xNy40NDUgMTcuNDQ1IDAgOC4wODQgNS41OTQgMTQuOTQyIDEzLjA5NiAxNi44OTF2OS40ODhoLTkuODY5djguNzAxaDkuODY5djUuMzc3aC02LjMxNXY4LjcwMWg2LjMxNXYyLjE5N2g4LjcwMVY1MC45NDFDNTMuMTA2IDQ4Ljk5MiA1OC43IDQyLjEzNCA1OC43IDM0LjA1YzAtOS41ODQtNy44NjMtMTcuNDQ1LTE3LjQ0Ny0xNy40NDV6bTAgOC42OTlBOC42OCA4LjY4IDAgMCAxIDUwIDM0LjA1YTguNjggOC42OCAwIDAgMS04Ljc0OCA4Ljc0NiA4LjY4IDguNjggMCAwIDEtOC43NDYtOC43NDYgOC42OCA4LjY4IDAgMCAxIDguNzQ2LTguNzQ2eiIvPiYjeGE7PC9zdmc+;" vertex="1" parent="xZK3O00M8n8B7UsS9KFt-319">
          <mxGeometry width="24" height="30" relative="1" as="geometry">
            <mxPoint x="18" y="15" as="offset" />
          </mxGeometry>
        </mxCell>
        <mxCell id="xZK3O00M8n8B7UsS9KFt-321" value="Data + ZK proof" style="text;html=1;align=center;verticalAlign=middle;whiteSpace=wrap;rounded=0;" vertex="1" parent="1">
          <mxGeometry x="1046" y="1770" width="60" height="30" as="geometry" />
        </mxCell>
        <mxCell id="xZK3O00M8n8B7UsS9KFt-322" value="" style="strokeColor=#dddddd;shadow=1;strokeWidth=1;rounded=1;absoluteArcSize=1;arcSize=2;" vertex="1" parent="1">
          <mxGeometry x="864" y="1780" width="170" height="60" as="geometry" />
        </mxCell>
        <mxCell id="xZK3O00M8n8B7UsS9KFt-323" value="verification key" style="editableCssRules=.*;html=1;fontColor=#999999;shape=image;verticalLabelPosition=middle;verticalAlign=middle;labelPosition=right;align=left;spacingLeft=20;part=1;points=[];imageAspect=0;image=data:image/svg+xml,PHN2ZyB4bWxucz0iaHR0cDovL3d3dy53My5vcmcvMjAwMC9zdmciIHhtbG5zOnY9Imh0dHBzOi8vdmVjdGEuaW8vbmFubyIgd2lkdGg9IjMxMC43NzU2MDY1NDM4NjAyNSIgaGVpZ2h0PSIzNzcuOTUzMDI4ODM1NTI1NDYiIHZpZXdCb3g9Ii0wLjE0MDAwMDAwMDU5NjA0NjQ1IC0wLjQ2NzAwMDAwNzYyOTM5NDUzIDgyLjIyNTk5NzkyNDgwNDY5IDEwMC4wMDAwMDc2MjkzOTQ1MyI+JiN4YTs8c3R5bGUgdHlwZT0idGV4dC9jc3MiPiYjeGE7CS5zdDB7ZmlsbDojNDI4NWY0O30mI3hhOwkuc3Qxe2ZpbGw6IzY2OWRmNjt9JiN4YTsJLnN0MntmaWxsOiNmZmY7fSYjeGE7PC9zdHlsZT4mI3hhOwk8cGF0aCBjbGFzcz0ic3QwIiBkPSJNNDAuOTczLS40NjdsNDEuMTEzIDE3LjQ5M3YyOS42NTRjMCAyNy40MTgtMjQuNjA4IDUwLjgzNi00MS4xMTMgNTIuODUzeiIvPiYjeGE7CTxwYXRoIGNsYXNzPSJzdDEiIGQ9Ik00MC45NzMtLjQ2N0wtLjE0IDE3LjAyNXYyOS42NTRjMCAyNy40MTggMjQuNjA4IDUwLjgzNiA0MS4xMTMgNTIuODUzeiIvPiYjeGE7CTxwYXRoIGNsYXNzPSJzdDIiIGQ9Ik00MS4yNTMgMTYuNjA1Yy05LjU4NCAwLTE3LjQ0NSA3Ljg2Mi0xNy40NDUgMTcuNDQ1IDAgOC4wODQgNS41OTQgMTQuOTQyIDEzLjA5NiAxNi44OTF2OS40ODhoLTkuODY5djguNzAxaDkuODY5djUuMzc3aC02LjMxNXY4LjcwMWg2LjMxNXYyLjE5N2g4LjcwMVY1MC45NDFDNTMuMTA2IDQ4Ljk5MiA1OC43IDQyLjEzNCA1OC43IDM0LjA1YzAtOS41ODQtNy44NjMtMTcuNDQ1LTE3LjQ0Ny0xNy40NDV6bTAgOC42OTlBOC42OCA4LjY4IDAgMCAxIDUwIDM0LjA1YTguNjggOC42OCAwIDAgMS04Ljc0OCA4Ljc0NiA4LjY4IDguNjggMCAwIDEtOC43NDYtOC43NDYgOC42OCA4LjY4IDAgMCAxIDguNzQ2LTguNzQ2eiIvPiYjeGE7PC9zdmc+;" vertex="1" parent="xZK3O00M8n8B7UsS9KFt-322">
          <mxGeometry width="24" height="30" relative="1" as="geometry">
            <mxPoint x="18" y="15" as="offset" />
          </mxGeometry>
        </mxCell>
        <mxCell id="xZK3O00M8n8B7UsS9KFt-324" style="edgeStyle=orthogonalEdgeStyle;rounded=0;orthogonalLoop=1;jettySize=auto;html=1;entryX=0;entryY=0.5;entryDx=0;entryDy=0;" edge="1" parent="1" source="xZK3O00M8n8B7UsS9KFt-322" target="xZK3O00M8n8B7UsS9KFt-329">
          <mxGeometry relative="1" as="geometry">
            <mxPoint x="1164.2800000000002" y="1618.1999999999998" as="targetPoint" />
          </mxGeometry>
        </mxCell>
        <mxCell id="xZK3O00M8n8B7UsS9KFt-325" style="edgeStyle=orthogonalEdgeStyle;rounded=0;orthogonalLoop=1;jettySize=auto;html=1;entryX=0;entryY=0.5;entryDx=0;entryDy=0;" edge="1" parent="1" source="xZK3O00M8n8B7UsS9KFt-319" target="xZK3O00M8n8B7UsS9KFt-329">
          <mxGeometry relative="1" as="geometry">
            <mxPoint x="1162.92" y="1619.5" as="targetPoint" />
          </mxGeometry>
        </mxCell>
        <mxCell id="xZK3O00M8n8B7UsS9KFt-326" style="edgeStyle=orthogonalEdgeStyle;rounded=0;orthogonalLoop=1;jettySize=auto;html=1;entryX=0;entryY=0.5;entryDx=0;entryDy=0;" edge="1" parent="1" source="xZK3O00M8n8B7UsS9KFt-316" target="xZK3O00M8n8B7UsS9KFt-329">
          <mxGeometry relative="1" as="geometry">
            <mxPoint x="1165.56" y="1619.5" as="targetPoint" />
          </mxGeometry>
        </mxCell>
        <mxCell id="xZK3O00M8n8B7UsS9KFt-327" style="edgeStyle=orthogonalEdgeStyle;rounded=0;orthogonalLoop=1;jettySize=auto;html=1;entryX=1;entryY=0.5;entryDx=0;entryDy=0;" edge="1" parent="1" source="xZK3O00M8n8B7UsS9KFt-372" target="xZK3O00M8n8B7UsS9KFt-374">
          <mxGeometry relative="1" as="geometry">
            <Array as="points" />
          </mxGeometry>
        </mxCell>
        <mxCell id="xZK3O00M8n8B7UsS9KFt-328" style="edgeStyle=orthogonalEdgeStyle;rounded=0;orthogonalLoop=1;jettySize=auto;html=1;entryX=1;entryY=0.5;entryDx=0;entryDy=0;" edge="1" parent="1" source="xZK3O00M8n8B7UsS9KFt-329" target="xZK3O00M8n8B7UsS9KFt-372">
          <mxGeometry relative="1" as="geometry">
            <Array as="points">
              <mxPoint x="1269" y="1903" />
            </Array>
          </mxGeometry>
        </mxCell>
        <mxCell id="xZK3O00M8n8B7UsS9KFt-329" value="QUANTINIUM&lt;br&gt;LAYER 1&lt;br&gt;RPC" style="rounded=0;whiteSpace=wrap;html=1;" vertex="1" parent="1">
          <mxGeometry x="1214" y="1403.5" width="110" height="433" as="geometry" />
        </mxCell>
        <mxCell id="xZK3O00M8n8B7UsS9KFt-330" value="" style="edgeStyle=orthogonalEdgeStyle;rounded=0;orthogonalLoop=1;jettySize=auto;html=1;" edge="1" parent="1" source="xZK3O00M8n8B7UsS9KFt-331" target="xZK3O00M8n8B7UsS9KFt-333">
          <mxGeometry relative="1" as="geometry" />
        </mxCell>
        <mxCell id="xZK3O00M8n8B7UsS9KFt-331" value="Verifier&lt;br&gt;Contract" style="shape=card;whiteSpace=wrap;html=1;" vertex="1" parent="1">
          <mxGeometry x="1381" y="1555.5" width="80" height="100" as="geometry" />
        </mxCell>
        <mxCell id="xZK3O00M8n8B7UsS9KFt-332" value="" style="edgeStyle=orthogonalEdgeStyle;rounded=0;orthogonalLoop=1;jettySize=auto;html=1;" edge="1" parent="1" source="xZK3O00M8n8B7UsS9KFt-379" target="xZK3O00M8n8B7UsS9KFt-349">
          <mxGeometry relative="1" as="geometry" />
        </mxCell>
        <mxCell id="xZK3O00M8n8B7UsS9KFt-333" value="&lt;div&gt;Data-Aggeragator&lt;br&gt;Smart contract&lt;br&gt;&lt;/div&gt;" style="shape=card;whiteSpace=wrap;html=1;" vertex="1" parent="1">
          <mxGeometry x="1381" y="1382.5" width="80" height="100" as="geometry" />
        </mxCell>
        <mxCell id="xZK3O00M8n8B7UsS9KFt-334" value="" style="edgeStyle=orthogonalEdgeStyle;rounded=0;orthogonalLoop=1;jettySize=auto;html=1;" edge="1" parent="1" source="xZK3O00M8n8B7UsS9KFt-335" target="xZK3O00M8n8B7UsS9KFt-331">
          <mxGeometry relative="1" as="geometry" />
        </mxCell>
        <mxCell id="xZK3O00M8n8B7UsS9KFt-335" value="Circom lib" style="shape=card;whiteSpace=wrap;html=1;" vertex="1" parent="1">
          <mxGeometry x="1381" y="1735.5" width="80" height="100" as="geometry" />
        </mxCell>
        <mxCell id="xZK3O00M8n8B7UsS9KFt-336" style="edgeStyle=orthogonalEdgeStyle;rounded=0;orthogonalLoop=1;jettySize=auto;html=1;entryX=0;entryY=0;entryDx=0;entryDy=65;entryPerimeter=0;" edge="1" parent="1" source="xZK3O00M8n8B7UsS9KFt-329" target="xZK3O00M8n8B7UsS9KFt-331">
          <mxGeometry relative="1" as="geometry" />
        </mxCell>
        <mxCell id="xZK3O00M8n8B7UsS9KFt-337" style="edgeStyle=orthogonalEdgeStyle;rounded=0;orthogonalLoop=1;jettySize=auto;html=1;entryX=0.963;entryY=0.715;entryDx=0;entryDy=0;entryPerimeter=0;" edge="1" parent="1" source="xZK3O00M8n8B7UsS9KFt-276" target="xZK3O00M8n8B7UsS9KFt-308">
          <mxGeometry relative="1" as="geometry" />
        </mxCell>
        <mxCell id="xZK3O00M8n8B7UsS9KFt-338" style="edgeStyle=orthogonalEdgeStyle;rounded=0;orthogonalLoop=1;jettySize=auto;html=1;entryX=0.93;entryY=0.647;entryDx=0;entryDy=0;entryPerimeter=0;" edge="1" parent="1" source="xZK3O00M8n8B7UsS9KFt-288" target="xZK3O00M8n8B7UsS9KFt-314">
          <mxGeometry relative="1" as="geometry" />
        </mxCell>
        <mxCell id="xZK3O00M8n8B7UsS9KFt-339" value="Oracle Data State" style="whiteSpace=wrap;html=1;" vertex="1" parent="1">
          <mxGeometry x="1861" y="1482.5" width="120" height="60" as="geometry" />
        </mxCell>
        <mxCell id="xZK3O00M8n8B7UsS9KFt-340" style="edgeStyle=orthogonalEdgeStyle;rounded=0;orthogonalLoop=1;jettySize=auto;html=1;entryX=0.5;entryY=0;entryDx=0;entryDy=0;" edge="1" parent="1" source="xZK3O00M8n8B7UsS9KFt-341" target="xZK3O00M8n8B7UsS9KFt-339">
          <mxGeometry relative="1" as="geometry">
            <Array as="points">
              <mxPoint x="1726" y="1450" />
              <mxPoint x="1921" y="1450" />
            </Array>
          </mxGeometry>
        </mxCell>
        <mxCell id="xZK3O00M8n8B7UsS9KFt-341" value="Data&amp;nbsp;" style="rounded=1;whiteSpace=wrap;html=1;" vertex="1" parent="1">
          <mxGeometry x="1666" y="1360" width="120" height="60" as="geometry" />
        </mxCell>
        <mxCell id="xZK3O00M8n8B7UsS9KFt-342" style="edgeStyle=orthogonalEdgeStyle;rounded=0;orthogonalLoop=1;jettySize=auto;html=1;entryX=0.5;entryY=0;entryDx=0;entryDy=0;" edge="1" parent="1" source="xZK3O00M8n8B7UsS9KFt-343" target="xZK3O00M8n8B7UsS9KFt-339">
          <mxGeometry relative="1" as="geometry" />
        </mxCell>
        <mxCell id="xZK3O00M8n8B7UsS9KFt-343" value="Proofs" style="rounded=1;whiteSpace=wrap;html=1;" vertex="1" parent="1">
          <mxGeometry x="1796" y="1360" width="120" height="60" as="geometry" />
        </mxCell>
        <mxCell id="xZK3O00M8n8B7UsS9KFt-344" style="edgeStyle=orthogonalEdgeStyle;rounded=0;orthogonalLoop=1;jettySize=auto;html=1;entryX=0.5;entryY=0;entryDx=0;entryDy=0;" edge="1" parent="1" source="xZK3O00M8n8B7UsS9KFt-345" target="xZK3O00M8n8B7UsS9KFt-339">
          <mxGeometry relative="1" as="geometry" />
        </mxCell>
        <mxCell id="xZK3O00M8n8B7UsS9KFt-345" value="Rewards &amp;amp; Penalties" style="rounded=1;whiteSpace=wrap;html=1;" vertex="1" parent="1">
          <mxGeometry x="1926" y="1360" width="120" height="60" as="geometry" />
        </mxCell>
        <mxCell id="xZK3O00M8n8B7UsS9KFt-346" style="edgeStyle=orthogonalEdgeStyle;rounded=0;orthogonalLoop=1;jettySize=auto;html=1;entryX=0.5;entryY=0;entryDx=0;entryDy=0;" edge="1" parent="1" source="xZK3O00M8n8B7UsS9KFt-347" target="xZK3O00M8n8B7UsS9KFt-339">
          <mxGeometry relative="1" as="geometry">
            <Array as="points">
              <mxPoint x="2116" y="1450" />
              <mxPoint x="1921" y="1450" />
            </Array>
          </mxGeometry>
        </mxCell>
        <mxCell id="xZK3O00M8n8B7UsS9KFt-347" value="Oracle Metrics" style="rounded=1;whiteSpace=wrap;html=1;" vertex="1" parent="1">
          <mxGeometry x="2056" y="1360" width="120" height="60" as="geometry" />
        </mxCell>
        <mxCell id="xZK3O00M8n8B7UsS9KFt-348" value="" style="edgeStyle=orthogonalEdgeStyle;rounded=0;orthogonalLoop=1;jettySize=auto;html=1;" edge="1" parent="1" source="xZK3O00M8n8B7UsS9KFt-349" target="xZK3O00M8n8B7UsS9KFt-351">
          <mxGeometry relative="1" as="geometry" />
        </mxCell>
        <mxCell id="xZK3O00M8n8B7UsS9KFt-349" value="Mempool" style="shape=cylinder3;whiteSpace=wrap;html=1;boundedLbl=1;backgroundOutline=1;size=15;" vertex="1" parent="1">
          <mxGeometry x="1514" y="1565.5" width="80" height="95" as="geometry" />
        </mxCell>
        <mxCell id="xZK3O00M8n8B7UsS9KFt-350" value="" style="edgeStyle=orthogonalEdgeStyle;rounded=0;orthogonalLoop=1;jettySize=auto;html=1;" edge="1" parent="1" source="xZK3O00M8n8B7UsS9KFt-351" target="xZK3O00M8n8B7UsS9KFt-355">
          <mxGeometry relative="1" as="geometry" />
        </mxCell>
        <mxCell id="xZK3O00M8n8B7UsS9KFt-351" value="Quantinium Blockchain&lt;br&gt;Consensus" style="whiteSpace=wrap;html=1;" vertex="1" parent="1">
          <mxGeometry x="1654" y="1564.5" width="170" height="97" as="geometry" />
        </mxCell>
        <mxCell id="xZK3O00M8n8B7UsS9KFt-352" value="" style="edgeStyle=orthogonalEdgeStyle;rounded=0;orthogonalLoop=1;jettySize=auto;html=1;" edge="1" parent="1" source="xZK3O00M8n8B7UsS9KFt-355" target="xZK3O00M8n8B7UsS9KFt-339">
          <mxGeometry relative="1" as="geometry" />
        </mxCell>
        <mxCell id="xZK3O00M8n8B7UsS9KFt-353" value="" style="edgeStyle=orthogonalEdgeStyle;rounded=0;orthogonalLoop=1;jettySize=auto;html=1;" edge="1" parent="1" source="xZK3O00M8n8B7UsS9KFt-355" target="xZK3O00M8n8B7UsS9KFt-356">
          <mxGeometry relative="1" as="geometry" />
        </mxCell>
        <mxCell id="xZK3O00M8n8B7UsS9KFt-354" value="" style="edgeStyle=orthogonalEdgeStyle;rounded=0;orthogonalLoop=1;jettySize=auto;html=1;" edge="1" parent="1" source="xZK3O00M8n8B7UsS9KFt-355" target="xZK3O00M8n8B7UsS9KFt-381">
          <mxGeometry relative="1" as="geometry" />
        </mxCell>
        <mxCell id="xZK3O00M8n8B7UsS9KFt-355" value="Block Finality" style="whiteSpace=wrap;html=1;" vertex="1" parent="1">
          <mxGeometry x="1861" y="1583" width="120" height="60" as="geometry" />
        </mxCell>
        <mxCell id="xZK3O00M8n8B7UsS9KFt-356" value="Core States" style="whiteSpace=wrap;html=1;" vertex="1" parent="1">
          <mxGeometry x="1861" y="1680" width="120" height="60" as="geometry" />
        </mxCell>
        <mxCell id="xZK3O00M8n8B7UsS9KFt-357" style="edgeStyle=orthogonalEdgeStyle;rounded=0;orthogonalLoop=1;jettySize=auto;html=1;entryX=0.5;entryY=1;entryDx=0;entryDy=0;" edge="1" parent="1" source="xZK3O00M8n8B7UsS9KFt-358" target="xZK3O00M8n8B7UsS9KFt-356">
          <mxGeometry relative="1" as="geometry">
            <Array as="points">
              <mxPoint x="1794" y="1760" />
              <mxPoint x="1989" y="1760" />
            </Array>
          </mxGeometry>
        </mxCell>
        <mxCell id="xZK3O00M8n8B7UsS9KFt-358" value="Accounts" style="rounded=1;whiteSpace=wrap;html=1;" vertex="1" parent="1">
          <mxGeometry x="1666" y="1776.5" width="120" height="60" as="geometry" />
        </mxCell>
        <mxCell id="xZK3O00M8n8B7UsS9KFt-359" value="Transaction" style="rounded=1;whiteSpace=wrap;html=1;" vertex="1" parent="1">
          <mxGeometry x="1796" y="1776.5" width="120" height="60" as="geometry" />
        </mxCell>
        <mxCell id="xZK3O00M8n8B7UsS9KFt-360" style="edgeStyle=orthogonalEdgeStyle;rounded=0;orthogonalLoop=1;jettySize=auto;html=1;entryX=0.5;entryY=1;entryDx=0;entryDy=0;" edge="1" parent="1" source="xZK3O00M8n8B7UsS9KFt-361" target="xZK3O00M8n8B7UsS9KFt-356">
          <mxGeometry relative="1" as="geometry" />
        </mxCell>
        <mxCell id="xZK3O00M8n8B7UsS9KFt-361" value="Blocks" style="rounded=1;whiteSpace=wrap;html=1;" vertex="1" parent="1">
          <mxGeometry x="1926" y="1776.5" width="120" height="60" as="geometry" />
        </mxCell>
        <mxCell id="xZK3O00M8n8B7UsS9KFt-362" style="edgeStyle=orthogonalEdgeStyle;rounded=0;orthogonalLoop=1;jettySize=auto;html=1;entryX=0.5;entryY=1;entryDx=0;entryDy=0;" edge="1" parent="1" source="xZK3O00M8n8B7UsS9KFt-363" target="xZK3O00M8n8B7UsS9KFt-356">
          <mxGeometry relative="1" as="geometry">
            <Array as="points">
              <mxPoint x="2116" y="1760" />
              <mxPoint x="1921" y="1760" />
            </Array>
          </mxGeometry>
        </mxCell>
        <mxCell id="xZK3O00M8n8B7UsS9KFt-363" value="Oracle Metrics" style="rounded=1;whiteSpace=wrap;html=1;" vertex="1" parent="1">
          <mxGeometry x="2056" y="1776.5" width="120" height="60" as="geometry" />
        </mxCell>
        <mxCell id="xZK3O00M8n8B7UsS9KFt-364" style="edgeStyle=orthogonalEdgeStyle;rounded=0;orthogonalLoop=1;jettySize=auto;html=1;entryX=0.497;entryY=0.937;entryDx=0;entryDy=0;entryPerimeter=0;" edge="1" parent="1" source="xZK3O00M8n8B7UsS9KFt-359" target="xZK3O00M8n8B7UsS9KFt-356">
          <mxGeometry relative="1" as="geometry" />
        </mxCell>
        <mxCell id="xZK3O00M8n8B7UsS9KFt-365" value="Heartbeat TX" style="rounded=0;whiteSpace=wrap;html=1;" vertex="1" parent="1">
          <mxGeometry x="440" y="1473" width="114" height="37" as="geometry" />
        </mxCell>
        <mxCell id="xZK3O00M8n8B7UsS9KFt-366" value="Heartbeat TX" style="rounded=0;whiteSpace=wrap;html=1;" vertex="1" parent="1">
          <mxGeometry x="440" y="1663" width="114" height="37" as="geometry" />
        </mxCell>
        <mxCell id="xZK3O00M8n8B7UsS9KFt-367" style="edgeStyle=orthogonalEdgeStyle;rounded=0;orthogonalLoop=1;jettySize=auto;html=1;entryX=0.016;entryY=0.206;entryDx=0;entryDy=0;entryPerimeter=0;" edge="1" parent="1" source="xZK3O00M8n8B7UsS9KFt-365" target="xZK3O00M8n8B7UsS9KFt-329">
          <mxGeometry relative="1" as="geometry" />
        </mxCell>
        <mxCell id="xZK3O00M8n8B7UsS9KFt-368" style="edgeStyle=orthogonalEdgeStyle;rounded=0;orthogonalLoop=1;jettySize=auto;html=1;entryX=0.047;entryY=0.64;entryDx=0;entryDy=0;entryPerimeter=0;" edge="1" parent="1" source="xZK3O00M8n8B7UsS9KFt-366" target="xZK3O00M8n8B7UsS9KFt-329">
          <mxGeometry relative="1" as="geometry" />
        </mxCell>
        <mxCell id="xZK3O00M8n8B7UsS9KFt-369" value="Beacon/Witness&lt;br&gt;Data" style="text;html=1;align=center;verticalAlign=middle;whiteSpace=wrap;rounded=0;" vertex="1" parent="1">
          <mxGeometry x="324" y="1510" width="60" height="23" as="geometry" />
        </mxCell>
        <mxCell id="xZK3O00M8n8B7UsS9KFt-370" value="" style="edgeStyle=orthogonalEdgeStyle;rounded=0;orthogonalLoop=1;jettySize=auto;html=1;" edge="1" parent="1" source="xZK3O00M8n8B7UsS9KFt-371" target="xZK3O00M8n8B7UsS9KFt-288">
          <mxGeometry relative="1" as="geometry">
            <Array as="points">
              <mxPoint x="454" y="1803" />
            </Array>
          </mxGeometry>
        </mxCell>
        <mxCell id="xZK3O00M8n8B7UsS9KFt-371" value="Data Resubmission" style="rounded=0;whiteSpace=wrap;html=1;" vertex="1" parent="1">
          <mxGeometry x="394" y="1885" width="114" height="37" as="geometry" />
        </mxCell>
        <mxCell id="xZK3O00M8n8B7UsS9KFt-372" value="new_block event" style="text;html=1;align=center;verticalAlign=middle;whiteSpace=wrap;rounded=0;strokeColor=default;" vertex="1" parent="1">
          <mxGeometry x="705.5" y="1892" width="205" height="23" as="geometry" />
        </mxCell>
        <mxCell id="xZK3O00M8n8B7UsS9KFt-373" value="" style="edgeStyle=orthogonalEdgeStyle;rounded=0;orthogonalLoop=1;jettySize=auto;html=1;" edge="1" parent="1" source="xZK3O00M8n8B7UsS9KFt-374" target="xZK3O00M8n8B7UsS9KFt-371">
          <mxGeometry relative="1" as="geometry" />
        </mxCell>
        <mxCell id="xZK3O00M8n8B7UsS9KFt-374" value="Websocket listner" style="rounded=0;whiteSpace=wrap;html=1;" vertex="1" parent="1">
          <mxGeometry x="533" y="1885" width="114" height="37" as="geometry" />
        </mxCell>
        <mxCell id="xZK3O00M8n8B7UsS9KFt-375" value="on_newblock" style="text;html=1;align=center;verticalAlign=middle;whiteSpace=wrap;rounded=0;" vertex="1" parent="1">
          <mxGeometry x="464" y="1837" width="60" height="23" as="geometry" />
        </mxCell>
        <mxCell id="xZK3O00M8n8B7UsS9KFt-376" style="edgeStyle=orthogonalEdgeStyle;rounded=0;orthogonalLoop=1;jettySize=auto;html=1;" edge="1" parent="1" source="xZK3O00M8n8B7UsS9KFt-379" target="xZK3O00M8n8B7UsS9KFt-379">
          <mxGeometry relative="1" as="geometry" />
        </mxCell>
        <mxCell id="xZK3O00M8n8B7UsS9KFt-377" value="Include Transaction in the processing block" style="text;html=1;align=center;verticalAlign=middle;whiteSpace=wrap;rounded=0;" vertex="1" parent="1">
          <mxGeometry x="1490" y="1360" width="128" height="30" as="geometry" />
        </mxCell>
        <mxCell id="xZK3O00M8n8B7UsS9KFt-378" value="" style="edgeStyle=orthogonalEdgeStyle;rounded=0;orthogonalLoop=1;jettySize=auto;html=1;" edge="1" parent="1" source="xZK3O00M8n8B7UsS9KFt-333" target="xZK3O00M8n8B7UsS9KFt-379">
          <mxGeometry relative="1" as="geometry">
            <mxPoint x="1461" y="1433" as="sourcePoint" />
            <mxPoint x="1554" y="1566" as="targetPoint" />
          </mxGeometry>
        </mxCell>
        <mxCell id="xZK3O00M8n8B7UsS9KFt-379" value="Initiate Oracle reward&lt;br&gt;TX" style="whiteSpace=wrap;html=1;" vertex="1" parent="1">
          <mxGeometry x="1494" y="1402.5" width="120" height="60" as="geometry" />
        </mxCell>
        <mxCell id="xZK3O00M8n8B7UsS9KFt-380" style="edgeStyle=orthogonalEdgeStyle;rounded=0;orthogonalLoop=1;jettySize=auto;html=1;entryX=1;entryY=0.5;entryDx=0;entryDy=0;" edge="1" parent="1" source="xZK3O00M8n8B7UsS9KFt-381" target="xZK3O00M8n8B7UsS9KFt-339">
          <mxGeometry relative="1" as="geometry">
            <Array as="points">
              <mxPoint x="2084" y="1512" />
            </Array>
          </mxGeometry>
        </mxCell>
        <mxCell id="xZK3O00M8n8B7UsS9KFt-381" value="Confirmed Oracle reward&lt;br&gt;TX&lt;br&gt;&amp;amp; State settlement" style="whiteSpace=wrap;html=1;" vertex="1" parent="1">
          <mxGeometry x="2024" y="1583" width="120" height="60" as="geometry" />
        </mxCell>
        <mxCell id="xZK3O00M8n8B7UsS9KFt-382" style="edgeStyle=orthogonalEdgeStyle;rounded=0;orthogonalLoop=1;jettySize=auto;html=1;entryX=1.007;entryY=0.587;entryDx=0;entryDy=0;entryPerimeter=0;" edge="1" parent="1" source="xZK3O00M8n8B7UsS9KFt-381" target="xZK3O00M8n8B7UsS9KFt-356">
          <mxGeometry relative="1" as="geometry">
            <Array as="points">
              <mxPoint x="2084" y="1715" />
            </Array>
          </mxGeometry>
        </mxCell>
      </root>
    </mxGraphModel>
  </diagram>
</mxfile>
